<?xml version="1.0" encoding="UTF-8"?>
<svg version="1.1" xmlns="http://www.w3.org/2000/svg" width="900" height="900">
<path d="M0 0 C297 0 594 0 900 0 C900 297 900 594 900 900 C603 900 306 900 0 900 C0 603 0 306 0 0 Z " fill="#FEFEFE" transform="translate(0,0)"/>
<path d="M0 0 C29.7 0 59.4 0 90 0 C90 50.49 90 100.98 90 153 C127.95 153 165.9 153 205 153 C205 102.51 205 52.02 205 0 C208.64790611 2.91832489 211.76745444 5.68696308 215 9 C216.24922241 10.24922241 216.24922241 10.24922241 217.52368164 11.52368164 C227.26184082 21.26184082 227.26184082 21.26184082 237 31 C237.76368896 31.72243896 238.52737793 32.44487793 239.31420898 33.18920898 C241 35 241 35 241 37 C241.54140625 37.2165625 242.0828125 37.433125 242.640625 37.65625 C245.81645344 39.46499997 248.20728081 41.91723799 250.75 44.5 C251.25660156 44.99886719 251.76320313 45.49773437 252.28515625 46.01171875 C256 49.74658861 256 49.74658861 256 52 C256.66 52 257.32 52 258 52 C259.18728771 53.12311 260.36584687 54.25694366 261.49755859 55.43603516 C263.14814901 57.15421556 264.84486254 58.8172548 266.55078125 60.48046875 C267.80476385 61.71606836 269.05866883 62.95174673 270.3125 64.1875 C270.95767578 64.81591797 271.60285156 65.44433594 272.26757812 66.09179688 C273.18120117 66.99575195 273.18120117 66.99575195 274.11328125 67.91796875 C274.94533081 68.73430786 274.94533081 68.73430786 275.79418945 69.56713867 C277 71 277 71 277 73 C277.66 73 278.32 73 279 73 C281.125 74.875 281.125 74.875 283 77 C283 77.66 283 78.32 283 79 C283.61875 79.2475 284.2375 79.495 284.875 79.75 C287.40358627 81.23740369 287.71839004 82.43678009 289 85 C290.96672915 86.1500831 290.96672915 86.1500831 293 87 C295 89 295 89 295.24050903 91.67019653 C295.23606781 92.80270844 295.23162659 93.93522034 295.22705078 95.10205078 C295.22689972 96.38322784 295.22674866 97.66440491 295.22659302 98.98440552 C295.21637895 100.38804274 295.20594695 101.7916784 295.1953125 103.1953125 C295.19158291 104.62734785 295.18873569 106.05938575 295.18673706 107.49142456 C295.17909627 111.26278717 295.15944408 115.03399604 295.1373291 118.80529785 C295.11688019 122.65272949 295.1077374 126.50018594 295.09765625 130.34765625 C295.0761985 137.89850764 295.04205732 145.44923229 295 153 C311.61246131 153.00958032 328.22446747 152.98477976 344.83678818 152.9197216 C352.55125712 152.89030003 360.26545206 152.87187491 367.97998047 152.87988281 C374.70872548 152.88683894 381.4370459 152.87260648 388.16568685 152.83356392 C391.72432281 152.8136383 395.28229331 152.8038932 398.84096527 152.81957626 C402.82652372 152.83674172 406.81044438 152.80657267 410.79589844 152.77294922 C412.54055138 152.79128059 412.54055138 152.79128059 414.32044983 152.8099823 C424.33350402 152.65857509 432.91264479 149.51630293 440 142.25 C446.67476033 133.60055508 448.22488591 124.78889411 447 114 C444.88061506 105.56779467 440.42534175 98.92232092 433.06185913 94.18659973 C423.95890965 88.94785318 415.99027935 90.45085779 406.13944817 92.17527199 C378.63429487 96.66661199 346.1695827 99.80251292 322.38840103 82.80545139 C307.7464558 71.7092857 294.91199815 58.42527393 282.4375 45 C281.949159 44.47557831 281.460818 43.95115663 280.95767879 43.41084337 C244 3.67260458 244 3.67260458 244 0 C267.90593425 -0.09375579 291.81184064 -0.16413154 315.71792221 -0.20724869 C326.81982345 -0.22780759 337.92160995 -0.25579951 349.0234375 -0.30175781 C358.708326 -0.34183103 368.39313133 -0.36748119 378.07810044 -0.37635398 C383.19849088 -0.38153429 388.31864356 -0.39356811 393.43895721 -0.42292023 C398.2751178 -0.45041436 403.11094655 -0.45837764 407.94717789 -0.45243073 C409.70615834 -0.45351598 411.46515189 -0.46126474 413.22406387 -0.4768219 C448.08294083 -0.76957233 478.94261747 12.10097733 503.8125 36.375 C509.77793607 42.37974701 514.48211204 48.85051132 519 56 C519.54011719 56.80566406 520.08023438 57.61132812 520.63671875 58.44140625 C536.45849027 82.98383923 541.12988171 115.62910696 535.82226562 144.0559082 C535.01135939 147.74498786 534.05217685 151.3731255 533 155 C532.82339844 155.65033203 532.64679687 156.30066406 532.46484375 156.97070312 C528.02568464 173.13253055 519.76607368 187.27645837 509 200 C508.17371094 200.97839844 507.34742188 201.95679688 506.49609375 202.96484375 C498.7138295 211.84320156 489.92264644 218.67251531 480 225 C481.61902889 229.94382035 484.48517653 233.76873334 487.5 237.9375 C488.03608887 238.68749268 488.57217773 239.43748535 489.12451172 240.21020508 C490.2224163 241.74522329 491.3225107 243.27867765 492.42480469 244.81054688 C493.84290435 246.78164387 495.25522826 248.75665028 496.6640625 250.734375 C499.89434327 255.26805788 503.13160259 259.79660878 506.38671875 264.3125 C511.16715143 270.9573111 515.8356313 277.66762483 520.4375 284.4375 C524.80816101 290.86272889 529.27741063 297.19186338 533.90380859 303.43505859 C537.87590633 308.80178477 541.73195975 314.24555557 545.5703125 319.70849609 C547.99097383 323.1533443 550.41831255 326.59243501 552.875 330.01171875 C553.32866943 330.64327881 553.78233887 331.27483887 554.24975586 331.92553711 C555.09530786 333.10069241 555.94236032 334.27477028 556.79125977 335.44750977 C559.02301801 338.55093755 561.05290232 341.71243112 563 345 C548.17926243 345.3043929 533.35894117 345.53326573 518.53570747 345.67355824 C511.65197061 345.74044756 504.77018136 345.83153755 497.88769531 345.98071289 C491.24174432 346.12469209 484.59727953 346.19975942 477.94970322 346.23340416 C475.41775601 346.25736919 472.88591572 346.30417241 470.3548317 346.37449074 C449.45621145 346.93183987 449.45621145 346.93183987 444.26712036 342.16604614 C441.57502098 339.04086704 439.79705517 335.69871267 438 332 C437.04103591 330.58991006 436.06185941 329.19262207 435.0390625 327.828125 C434.23087926 326.63778261 433.42614578 325.4450902 432.625 324.25 C431.70275471 322.89259562 430.77954259 321.53584773 429.85546875 320.1796875 C429.38931152 319.49487305 428.9231543 318.81005859 428.44287109 318.10449219 C425.97458551 314.50438699 423.45768776 310.9388856 420.9375 307.375 C420.4336377 306.6624707 419.92977539 305.94994141 419.41064453 305.21582031 C415.88283053 300.23416778 412.3370513 295.26548823 408.78442383 290.30151367 C404.01242496 283.62905228 399.28911219 276.92227609 394.56298828 270.21728516 C391.89731388 266.43570832 389.23000731 262.65528402 386.5625 258.875 C386.07861816 258.18881592 385.59473633 257.50263184 385.09619141 256.7956543 C384.6326123 256.13863525 384.1690332 255.48161621 383.69140625 254.8046875 C383.29123291 254.23733887 382.89105957 253.66999023 382.47875977 253.08544922 C381.99076904 252.39725098 381.50277832 251.70905273 381 251 C380.68425648 250.43776513 380.36851295 249.87553026 380.04320145 249.29625797 C378.83148065 247.29932871 377.65862241 245.64920949 376 244 C372.98054927 243.27744878 371.01179823 243.04915038 367.99682617 243.11352539 C367.19333646 243.10276946 366.38984674 243.09201353 365.56200886 243.08093166 C362.97135336 243.05411088 360.38361288 243.0748997 357.79296875 243.09765625 C356.18963466 243.08806881 354.58631613 243.07534961 352.98303223 243.05944824 C347.05130295 243.02252965 341.11932167 243.0461633 335.1875 243.0625 C321.925625 243.041875 308.66375 243.02125 295 243 C295 276.66 295 310.32 295 345 C265.3 345 235.6 345 205 345 C205 311.34 205 277.68 205 243 C167.05 243 129.1 243 90 243 C90 276.66 90 310.32 90 345 C60.3 345 30.6 345 0 345 C0 311.34 0 277.68 0 243 C-25.41 243 -50.82 243 -77 243 C-77 213.3 -77 183.6 -77 153 C-51.59 153 -26.18 153 0 153 C0 102.51 0 52.02 0 0 Z " fill="#EA1A41" transform="translate(192,266)"/>
<path d="M0 0 C1.65 1.65 3.3 3.3 5 5 C4.01 5.33 3.02 5.66 2 6 C2 54.84 2 103.68 2 154 C-0.42081002 155.21040501 -1.90285672 155.10879552 -4.60635376 155.08229065 C-6.06191933 155.07173141 -6.06191933 155.07173141 -7.54689026 155.06095886 C-8.61503464 155.04801285 -9.68317902 155.03506683 -10.78369141 155.02172852 C-12.46662041 155.0073172 -12.46662041 155.0073172 -14.18354797 154.99261475 C-17.90628148 154.95953218 -21.628901 154.91923511 -25.3515625 154.87890625 C-27.92702833 154.85461418 -30.50249843 154.83077018 -33.07797241 154.80735779 C-39.17303613 154.75086448 -45.26803917 154.68983913 -51.36303651 154.62663645 C-58.3012448 154.55494154 -65.23950407 154.48900811 -72.17777371 154.42356598 C-86.45191496 154.28880206 -100.7259775 154.14677887 -115 154 C-115 153.67 -115 153.34 -115 153 C-77.05 153 -39.1 153 0 153 C0 102.51 0 52.02 0 0 Z " fill="#CE3555" transform="translate(397,266)"/>
<path d="M0 0 C3.15140423 0.34069235 4.60781561 0.58076841 6.8125 2.9375 C8 5 8 5 8 7 C8.928125 7.4640625 8.928125 7.4640625 9.875 7.9375 C11.25 8.625 12.625 9.3125 14 10 C14 10.66 14 11.32 14 12 C14.66 12 15.32 12 16 12 C16.33 12.99 16.66 13.98 17 15 C14 15 14 15 12.37426758 13.73071289 C11.80345459 13.1505542 11.2326416 12.57039551 10.64453125 11.97265625 C10.02255859 11.34552734 9.40058594 10.71839844 8.75976562 10.07226562 C8.11716797 9.40904297 7.47457031 8.74582031 6.8125 8.0625 C5.83120117 7.0734668 5.83120117 7.0734668 4.83007812 6.06445312 C0 1.15378975 0 1.15378975 0 0 Z " fill="#D32D4E" transform="translate(471,301)"/>
<path d="M0 0 C0.33 0.66 0.66 1.32 1 2 C-1.70114004 7.98948444 -5.58759552 12.25782972 -11 16 C-13.25 16.6953125 -13.25 16.6953125 -15 17 C-14.28457031 16.30519531 -13.56914063 15.61039062 -12.83203125 14.89453125 C-9.91929323 11.98179323 -7.29796818 8.8703375 -4.6875 5.6875 C-4.23310547 5.13771484 -3.77871094 4.58792969 -3.31054688 4.02148438 C-2.20474148 2.68287784 -1.10204061 1.34170769 0 0 Z " fill="#FDDCE5" transform="translate(704,461)"/>
<path d="M0 0 C6.0644324 0.95754196 8.33040659 4.14026819 12 9 C11.67 9.99 11.34 10.98 11 12 C9.16364422 10.19047409 7.33083792 8.37759362 5.5 6.5625 C4.97535156 6.04623047 4.45070313 5.52996094 3.91015625 4.99804688 C2.58775448 3.68423213 1.29164432 2.34406495 0 1 C0 0.67 0 0.34 0 0 Z " fill="#D52D4E" transform="translate(438,268)"/>
<path d="M0 0 C3.78611227 0.54087318 5.55400767 2.11722332 8 5 C8 5.66 8 6.32 8 7 C8.66 7 9.32 7 10 7 C11.38232443 8.62626404 12.71937515 10.2925002 14 12 C13.01 12.495 13.01 12.495 12 13 C12 12.34 12 11.68 12 11 C11.40445312 10.9071875 10.80890625 10.814375 10.1953125 10.71875 C7.49123431 9.83342903 6.61309813 8.72039762 4.875 6.5 C2.80112319 3.8119616 2.80112319 3.8119616 0 2 C0 1.34 0 0.68 0 0 Z " fill="#D42F50" transform="translate(461,332)"/>
<path d="M0 0 C0.66 0.33 1.32 0.66 2 1 C0.50260417 2.20442708 -0.99479167 3.40885417 -2.4921875 4.61328125 C-4.25292107 6.12270545 -4.25292107 6.12270545 -6 9 C-5.34 9.33 -4.68 9.66 -4 10 C-4.99 10 -5.98 10 -7 10 C-7.33 8.68 -7.66 7.36 -8 6 C-5.36 4.02 -2.72 2.04 0 0 Z " fill="#FDCFDC" transform="translate(679,485)"/>
<path d="M0 0 C0.66 0 1.32 0 2 0 C2 0.66 2 1.32 2 2 C2.66 2 3.32 2 4 2 C4 2.66 4 3.32 4 4 C4.66 4 5.32 4 6 4 C6.33 5.65 6.66 7.3 7 9 C5.82460004 8.07347299 4.65989423 7.13336613 3.5 6.1875 C2.52546875 5.40439453 2.52546875 5.40439453 1.53125 4.60546875 C0 3 0 3 0 0 Z " fill="#D52C4D" transform="translate(493,321)"/>
<path d="M0 0 C0.8125 1.6875 0.8125 1.6875 1 4 C-1.25 6.5625 -1.25 6.5625 -4 9 C-4.598125 9.598125 -5.19625 10.19625 -5.8125 10.8125 C-6.204375 11.204375 -6.59625 11.59625 -7 12 C-7.66 11.67 -8.32 11.34 -9 11 C-8.43410156 10.37351562 -7.86820313 9.74703125 -7.28515625 9.1015625 C-6.18494141 7.87566406 -6.18494141 7.87566406 -5.0625 6.625 C-4.33160156 5.81289063 -3.60070312 5.00078125 -2.84765625 4.1640625 C-0.97010529 2.14075833 -0.97010529 2.14075833 0 0 Z " fill="#C72043" transform="translate(636,402)"/>
<path d="M0 0 C0.99 0.33 1.98 0.66 3 1 C3 1.66 3 2.32 3 3 C3.61875 3.268125 4.2375 3.53625 4.875 3.8125 C7 5 7 5 9 8 C8.01 8 7.02 8 6 8 C5.7525 7.38125 5.505 6.7625 5.25 6.125 C3.79371361 3.64931313 2.62187494 3.04874998 0 2 C0 1.34 0 0.68 0 0 Z " fill="#D33454" transform="translate(430,300)"/>
<path d="M0 0 C1.98 0.99 1.98 0.99 4 2 C4 2.66 4 3.32 4 4 C5.32 4.66 6.64 5.32 8 6 C8 6.99 8 7.98 8 9 C6.84775972 8.07038578 5.70340824 7.1309875 4.5625 6.1875 C3.60537109 5.40439453 3.60537109 5.40439453 2.62890625 4.60546875 C1 3 1 3 0 0 Z " fill="#D23655" transform="translate(477,347)"/>
<path d="M0 0 C0.66 0.99 1.32 1.98 2 3 C1.34 4.32 0.68 5.64 0 7 C-0.66 7 -1.32 7 -2 7 C-2 7.99 -2 8.98 -2 10 C-2.66 10 -3.32 10 -4 10 C-3.52449439 8.51965236 -3.04448784 7.04074979 -2.5625 5.5625 C-2.29566406 4.73878906 -2.02882813 3.91507812 -1.75390625 3.06640625 C-1 1 -1 1 0 0 Z " fill="#FCD8E3" transform="translate(719,436)"/>
<path d="M0 0 C3.36720387 1.39332574 4.9859524 2.9789286 7 6 C4 6 4 6 1.8125 4.125 C0 2 0 2 0 0 Z " fill="#D22D4F" transform="translate(511,340)"/>
</svg>
