<?xml version="1.0" encoding="UTF-8"?>
<svg version="1.1" xmlns="http://www.w3.org/2000/svg" width="400" height="400">
<path d="M0 0 C43.56 0 87.12 0 132 0 C136 6 136 6 136 8 C136.66 8 137.32 8 138 8 C138 8.66 138 9.32 138 10 C138.99 10 139.98 10 141 10 C142.0064275 11.66279327 143.00585407 13.32983484 144 15 C145.93330603 16.09166275 145.93330603 16.09166275 148 17 C149.35368596 18.31266518 150.68799596 19.64567325 152 21 C152.99 21.66 153.98 22.32 155 23 C155 23.99 155 24.98 155 26 C156.98 26.33 158.96 26.66 161 27 C161 27.66 161 28.32 161 29 C161.928125 28.690625 161.928125 28.690625 162.875 28.375 C163.57625 28.25125 164.2775 28.1275 165 28 C165.99 28.99 165.99 28.99 167 30 C167.66 30.33 168.32 30.66 169 31 C169 31.66 169 32.32 169 33 C169.99 33 170.98 33 172 33 C172.33 32.34 172.66 31.68 173 31 C174.65 32.65 176.3 34.3 178 36 C178.66 35.67 179.32 35.34 180 35 C179.67 34.34 179.34 33.68 179 33 C179.79277344 33.32613281 180.58554688 33.65226562 181.40234375 33.98828125 C185.89149754 35.25070343 189.92827899 35.2555976 194.5625 35.1875 C195.39974609 35.18685547 196.23699219 35.18621094 197.09960938 35.18554688 C201.22530362 35.15614763 204.95271843 34.84674413 209 34 C209.66 34.33 210.32 34.66 211 35 C211 34.34 211 33.68 211 33 C214.75 31 214.75 31 217 31 C219.0078864 30.35747635 221.00882592 29.69258229 223 29 C223 28.34 223 27.68 223 27 C224.98 27.33 226.96 27.66 229 28 C229.33 26.68 229.66 25.36 230 24 C230.66 24 231.32 24 232 24 C232.33 23.34 232.66 22.68 233 22 C233.99 21.67 234.98 21.34 236 21 C236.33 20.34 236.66 19.68 237 19 C237.66 19 238.32 19 239 19 C239 18.34 239 17.68 239 17 C239.598125 16.979375 240.19625 16.95875 240.8125 16.9375 C243.43314602 16.09543384 243.43314602 16.09543384 244.75 12.4375 C245.1625 11.303125 245.575 10.16875 246 9 C246.66 9 247.32 9 248 9 C248 8.01 248 7.02 248 6 C249.33333333 5 250.66666667 4 252 3 C252 2.01 252 1.02 252 0 C300.84 0 349.68 0 400 0 C400 132 400 264 400 400 C268 400 136 400 0 400 C0 268 0 136 0 0 Z M293 17 C294 19 294 19 294 19 Z M219 32 C219 32.66 219 33.32 219 34 C219.66 34 220.32 34 221 34 C221 33.34 221 32.68 221 32 C220.34 32 219.68 32 219 32 Z M214 34 C213.67 34.99 213.34 35.98 213 37 C213.99 37 214.98 37 216 37 C216 36.01 216 35.02 216 34 C215.34 34 214.68 34 214 34 Z M92.16796875 84.0234375 C90 86 90 86 86.9375 88.375 C82.38165292 92.4461825 78.75946749 97.19935329 75 102 C74.25363281 102.93070313 73.50726563 103.86140625 72.73828125 104.8203125 C47.78040358 136.79078755 36.89992417 178.92896449 41.81982422 219.07104492 C47.70565674 260.95581726 68.49681321 298.60539498 102.2421875 324.52734375 C136.02195913 349.7469866 177.1558107 360.34541693 219.02270508 355.22875977 C248.71337491 350.87917119 276.32654119 338.73223837 299 319 C299.93972656 318.19304687 300.87945312 317.38609375 301.84765625 316.5546875 C332.21261942 289.94769098 349.70616362 252.9122693 353.6875 212.9375 C356.16967048 174.92926457 346.76080047 136.2915468 323 106 C322.32839844 105.13632813 321.65679687 104.27265625 320.96484375 103.3828125 C319.00449503 100.89743783 317.01440584 98.44170405 315 96 C314.41347656 95.2884375 313.82695312 94.576875 313.22265625 93.84375 C292.33858305 69.21853898 261.13354531 53.03833713 230 46 C229.31502441 45.83773926 228.63004883 45.67547852 227.92431641 45.50830078 C179.834582 34.46851101 127.8733614 50.98601537 92.16796875 84.0234375 Z M357 108 C358 110 358 110 358 110 Z " fill="#000000" transform="translate(0,0)"/>
<path d="M0 0 C0.91394531 0.29003906 1.82789063 0.58007812 2.76953125 0.87890625 C13.42734742 4.69782389 23.26224015 12.49628702 28.17578125 22.8125 C33.85588539 37.88765791 31.45185414 52.48432523 25.1875 66.86523438 C15.67629478 87.58292907 -0.41362311 105.70522158 -15.625 122.4375 C-16.10976807 122.97544189 -16.59453613 123.51338379 -17.09399414 124.06762695 C-19.52053279 126.68441514 -21.65130447 128.68724847 -25 130 C-25 130.66 -25 131.32 -25 132 C-26.2578125 133.3046875 -26.2578125 133.3046875 -28.125 134.875 C-28.84945312 135.49117187 -29.57390625 136.10734375 -30.3203125 136.7421875 C-31.64675781 137.85980469 -31.64675781 137.85980469 -33 139 C-34.72315407 140.47240044 -36.44336605 141.94819124 -38.16333008 143.42431641 C-39.39661988 144.48235873 -40.63084617 145.53931034 -41.8659668 146.59521484 C-44.91533181 149.20289706 -47.9443342 151.82776445 -50.9375 154.5 C-75.19437789 175.71186555 -107.24627262 200.04856519 -141.0625 199 C-149.27789353 198.05332551 -157.25801244 194.77291151 -162.5 188.1875 C-169.17460846 177.86148809 -171.35714357 167.60718043 -171.125 155.4375 C-171.11597656 154.52419922 -171.10695312 153.61089844 -171.09765625 152.66992188 C-171.07437253 150.44632681 -171.0416771 148.22331323 -171 146 C-170.40832031 146.13277344 -169.81664062 146.26554688 -169.20703125 146.40234375 C-167.57467858 146.76715993 -165.94175795 147.12944187 -164.30834961 147.48950195 C-162.66336769 147.85329436 -161.02040845 148.22628419 -159.37890625 148.60546875 C-142.45445441 151.41231544 -127.91931837 145.54023201 -114.109375 136.00390625 C-111.62064112 134.15095548 -109.16387943 132.26475472 -106.72509766 130.34667969 C-104.78213677 128.82992731 -102.82052289 127.33957477 -100.85546875 125.8515625 C-89.53507979 117.2749758 -78.50542491 108.7311686 -68.55859375 98.55859375 C-66.3994267 96.3994267 -64.20884683 94.40162852 -61.875 92.4375 C-57.12546659 88.36371321 -53.08335625 83.7288119 -49 79 C-47.79150391 77.62328125 -47.79150391 77.62328125 -46.55859375 76.21875 C-28.71264775 55.46685196 -28.71264775 55.46685196 -21.79296875 30.015625 C-22.27452888 25.32722822 -24.62260444 22.10318418 -27.875 18.875 C-37.85674016 10.80059872 -53.00544434 10.24596539 -65.26171875 11.2734375 C-77.44407356 12.69404213 -86.67110938 16.22993463 -95.94140625 24.328125 C-99.12470347 26.91342141 -101.73030965 27.11985058 -105.6875 27.0625 C-106.89986328 27.04896484 -106.89986328 27.04896484 -108.13671875 27.03515625 C-108.75160156 27.02355469 -109.36648437 27.01195313 -110 27 C-110 25.68 -110 24.36 -110 23 C-84.57054433 -2.19268234 -32.94490772 -10.7059463 0 0 Z M-25 6 C-24 8 -24 8 -24 8 Z M3 78 C3.66 78.66 4.32 79.32 5 80 C5.33 79.34 5.66 78.68 6 78 C5.01 78 4.02 78 3 78 Z M-34 86 C-34 86.66 -34 87.32 -34 88 C-33.34 87.67 -32.68 87.34 -32 87 C-32.66 86.67 -33.32 86.34 -34 86 Z " fill="#000000" transform="translate(230,64)"/>
<path d="M0 0 C17.74623064 6.65483649 33.11670373 22.27573371 41.1015625 39.31640625 C51.20453794 62.36681082 50.30545811 86.98692463 41.390625 110.375 C29.39102298 139.88696854 6.29359491 166.70086763 -18 187 C-18.50869629 187.4316748 -19.01739258 187.86334961 -19.54150391 188.30810547 C-49.36499899 213.4976362 -88.41142733 237.97678929 -128.9765625 235.78515625 C-146.23272168 234.24741731 -163.08348853 226.78615827 -175 214 C-181 206.2484472 -181 206.2484472 -181 203 C-180.21463867 203.0407666 -179.42927734 203.0815332 -178.62011719 203.12353516 C-174.99726922 203.30398556 -171.3737885 203.46459085 -167.75 203.625 C-166.51507813 203.68945312 -165.28015625 203.75390625 -164.0078125 203.8203125 C-151.90635586 204.32984752 -141.70047108 202.81580513 -130.5625 198.0625 C-129.62728516 197.670625 -128.69207031 197.27875 -127.72851562 196.875 C-106.03605283 187.59277917 -86.51678235 175.54346 -68 161 C-67.16597656 160.34692871 -66.33195312 159.69385742 -65.47265625 159.02099609 C-58.87388713 153.74787256 -52.77710701 148.08952913 -46.83789062 142.09863281 C-45.37586839 140.62587477 -43.90342512 139.16414955 -42.4296875 137.703125 C-36.18608676 131.46917827 -30.45788327 124.93794217 -25 118 C-24.42056641 117.27458008 -23.84113281 116.54916016 -23.24414062 115.80175781 C-4.67980774 92.44481904 14.85745007 63.5342549 11.72265625 32.23046875 C10.18462274 21.05409193 6.18531703 11.36633722 0 2 C0 1.34 0 0.68 0 0 Z M-87 220 C-87.33 221.32 -87.66 222.64 -88 224 C-86.68 224 -85.36 224 -84 224 C-84.33 222.68 -84.66 221.36 -85 220 C-85.66 220 -86.32 220 -87 220 Z " fill="#000000" transform="translate(277,89)"/>
<path d="M0 0 C0.92232925 0.00424484 1.84465851 0.00848969 2.79493713 0.01286316 C5.7190666 0.02955511 8.64248774 0.06718937 11.56640625 0.10546875 C13.5579327 0.12052786 15.54947004 0.13421411 17.54101562 0.14648438 C22.40391563 0.17942753 27.26629115 0.23114376 32.12890625 0.29296875 C31.0177143 3.7840022 29.86523089 7.06750856 28.1328125 10.296875 C27.55031738 11.39298096 27.55031738 11.39298096 26.95605469 12.51123047 C26.5387207 13.2848291 26.12138672 14.05842773 25.69140625 14.85546875 C24.7908218 16.53600585 23.89111588 18.21701398 22.9921875 19.8984375 C22.52377441 20.77419434 22.05536133 21.64995117 21.57275391 22.55224609 C20.09236713 25.36232759 18.65844062 28.19225046 17.234375 31.03125 C16.75734131 31.97218506 16.28030762 32.91312012 15.78881836 33.88256836 C14.86900618 35.69973496 13.95916348 37.52199252 13.06079102 39.34985352 C10.40898372 44.54366554 8.19084616 48.25456717 3.12890625 51.29296875 C0.29293569 51.8315507 -2.37348004 51.77429324 -5.24609375 51.60546875 C-6.35017578 51.57163086 -6.35017578 51.57163086 -7.4765625 51.53710938 C-9.27563217 51.47869802 -11.07364128 51.38903212 -12.87109375 51.29296875 C-11.58372391 47.17513574 -10.04158811 43.40602955 -8.0859375 39.5625 C-7.55548828 38.51255859 -7.02503906 37.46261719 -6.47851562 36.38085938 C-5.92744141 35.29998047 -5.37636719 34.21910156 -4.80859375 33.10546875 C-3.71176802 30.94621253 -2.61663489 28.78609545 -1.5234375 26.625 C-1.03866943 25.67343018 -0.55390137 24.72186035 -0.05444336 23.74145508 C1.21491931 21.2484193 1.21491931 21.2484193 2.12890625 18.29296875 C-6.45109375 18.29296875 -15.03109375 18.29296875 -23.87109375 18.29296875 C-23.0260329 14.06766448 -22.31111732 11.77899928 -20.24609375 8.16796875 C-19.77945313 7.31976563 -19.3128125 6.4715625 -18.83203125 5.59765625 C-13.85237542 -0.2549273 -7.12112134 -0.12493338 0 0 Z " fill="#000000" transform="translate(110.87109375,116.70703125)"/>
<path d="M0 0 C0.87454834 0.00523682 1.74909668 0.01047363 2.65014648 0.01586914 C3.59438477 0.0190918 4.53862305 0.02231445 5.51147461 0.02563477 C6.50469727 0.03401367 7.49791992 0.04239258 8.52124023 0.05102539 C9.51833008 0.05553711 10.51541992 0.06004883 11.54272461 0.06469727 C14.01478872 0.07652532 16.48673541 0.0930069 18.95874023 0.11352539 C18.2184756 4.36268008 16.93800026 7.1603659 14.58374023 10.80102539 C13.97788086 11.75364258 13.37202148 12.70625977 12.74780273 13.68774414 C10.95874023 16.11352539 10.95874023 16.11352539 7.95874023 18.11352539 C5.87402344 18.34057617 5.87402344 18.34057617 3.50952148 18.30883789 C2.23818359 18.29916992 2.23818359 18.29916992 0.94116211 18.28930664 C0.06008789 18.27254883 -0.82098633 18.25579102 -1.72875977 18.23852539 C-2.62143555 18.22950195 -3.51411133 18.22047852 -4.43383789 18.21118164 C-6.6365829 18.18762287 -8.83878565 18.15472868 -11.04125977 18.11352539 C-9.74459943 13.88528518 -8.12900695 10.16301727 -5.97875977 6.30102539 C-5.4515332 5.34583008 -4.92430664 4.39063477 -4.38110352 3.40649414 C-2.47089477 0.13741969 -2.47089477 0.13741969 0 0 Z " fill="#000000" transform="translate(148.041259765625,116.886474609375)"/>
<path d="M0 0 C0.33 0 0.66 0 1 0 C2.43378359 30.10945532 -12.46283063 59.0244474 -32 81 C-53.42724153 104.27206601 -84.45680657 124.91339849 -116.90014648 127.20483398 C-119.95698432 127.30227394 -123.00420764 127.3221598 -126.0625 127.3125 C-127.08666016 127.32861328 -128.11082031 127.34472656 -129.16601562 127.36132812 C-135.31719862 127.36525859 -141.52526761 127.1192582 -147 124 C-147.33 123.01 -147.66 122.02 -148 121 C-146.34677734 120.97873047 -146.34677734 120.97873047 -144.66015625 120.95703125 C-126.4626012 120.48549763 -111.2401951 114.90345619 -95 107 C-94.08879395 106.55736816 -93.17758789 106.11473633 -92.23876953 105.65869141 C-73.84761497 96.62307772 -57.6881422 86.320364 -43 72 C-42.37222656 71.43410156 -41.74445313 70.86820312 -41.09765625 70.28515625 C-21.57309657 52.23068106 -9.53992538 24.25149452 0 0 Z " fill="#000000" transform="translate(335,212)"/>
</svg>
