<?xml version="1.0" encoding="UTF-8"?>
<svg version="1.1" xmlns="http://www.w3.org/2000/svg" width="200" height="200">
<path d="M0 0 C66 0 132 0 200 0 C200 66 200 132 200 200 C134 200 68 200 0 200 C0 134 0 68 0 0 Z " fill="#C68031" transform="translate(0,0)"/>
<path d="M0 0 C66 0 132 0 200 0 C200 66 200 132 200 200 C134 200 68 200 0 200 C0 134 0 68 0 0 Z M88 10 C85.79743797 10.48531028 83.58853202 10.94247075 81.375 11.375 C63.39142519 15.18683852 49.41539425 22.61041047 36 35 C35.11699219 35.81210937 34.23398437 36.62421875 33.32421875 37.4609375 C28.96385851 41.64288692 25.57497156 45.51419102 23 51 C23 51.66 23 52.32 23 53 C22.34 53 21.68 53 21 53 C17.8740962 58.11943031 15.67367424 63.11786239 13.8125 68.8125 C13.42070557 69.99465088 13.42070557 69.99465088 13.02099609 71.20068359 C11.22048951 76.82914824 10.19132556 82.06890765 10 88 C9.34 88 8.68 88 8 88 C6.63671501 114.77281981 12.16820066 139.25307811 30.54492188 159.72070312 C37.62903358 167.37809554 44.74330345 174.02905991 54 179 C54.91910156 179.51820313 55.83820312 180.03640625 56.78515625 180.5703125 C66.70249495 185.88269581 79.55871029 191.71619346 91 190 C93.50160818 188.12379387 94.61945652 186.76108697 96 184 C96.10917158 182.60743695 96.15896101 181.20995172 96.17700195 179.81323242 C96.18983719 178.94860886 96.20267242 178.08398529 96.21589661 177.19316101 C96.22328354 176.25672256 96.23067047 175.32028412 96.23828125 174.35546875 C96.25038887 172.91256218 96.25038887 172.91256218 96.26274109 171.44050598 C96.2765861 169.40200607 96.28730638 167.36348294 96.29516602 165.32495117 C96.31237389 162.21032664 96.35625577 159.09676482 96.40039062 155.98242188 C96.41051791 154.00261198 96.4190339 152.02279305 96.42578125 150.04296875 C96.44328934 149.112603 96.46079742 148.18223724 96.47883606 147.22367859 C96.46466166 142.98875257 96.38870381 140.63682675 94.14160156 136.95532227 C91.66283235 134.69215964 89.62415447 133.7731979 86.4375 132.75 C85.01244141 132.27820313 85.01244141 132.27820313 83.55859375 131.796875 C82.71425781 131.53390625 81.86992188 131.2709375 81 131 C79.515 130.505 79.515 130.505 78 130 C76.2605264 124.66532181 75.68074671 119.60517412 75.5859375 114 C75.56829346 113.35933594 75.55064941 112.71867187 75.5324707 112.05859375 C75.47025107 109.70596635 75.42348365 107.35295055 75.375 105 C75.25125 99.72 75.1275 94.44 75 89 C91.5 89 108 89 125 89 C125 88.34 125 87.68 125 87 C108.17 86.67 91.34 86.34 74 86 C74 68.51 74 51.02 74 33 C74 50 74 67 74 84 C74.33 84 74.66 84 75 84 C75.33 68.49 75.66 52.98 76 37 C77.65 36.67 79.3 36.34 81 36 C80.98952637 37.07483643 80.97905273 38.14967285 80.96826172 39.25708008 C80.93207221 43.24337435 80.90910337 47.22965408 80.89013672 51.21606445 C80.88007674 52.94167523 80.86642724 54.66726895 80.84912109 56.39282227 C80.82487246 58.8726014 80.81351699 61.35215523 80.8046875 63.83203125 C80.79436493 64.60400345 80.78404236 65.37597565 80.77340698 66.17134094 C80.77260578 69.99281476 80.82757405 71.74136107 83 75 C85.5 75.41666667 85.5 75.41666667 88 75 C90.39839483 73.04260658 90.39839483 73.04260658 90.22705078 69.37646484 C90.22673357 67.82125311 90.21540299 66.26601949 90.1953125 64.7109375 C90.1924826 63.89251373 90.18965271 63.07408997 90.18673706 62.23086548 C90.17552532 59.61209607 90.15041929 56.99366636 90.125 54.375 C90.11497147 52.60156743 90.1058454 50.82812951 90.09765625 49.0546875 C90.07558278 44.70299374 90.04104644 40.3515545 90 36 C92.31 36 94.62 36 97 36 C96.9592334 37.07483643 96.9184668 38.14967285 96.87646484 39.25708008 C96.72804807 43.24307821 96.59338809 47.22944273 96.46289062 51.21606445 C96.40447424 52.9417817 96.34232234 54.6673767 96.27636719 56.39282227 C96.18223566 58.87233218 96.10152614 61.3519707 96.0234375 63.83203125 C95.99124115 64.60400345 95.9590448 65.37597565 95.9258728 66.17134094 C95.81783352 70.03041447 95.80147485 71.70221227 98 75 C100.54207971 75.33343551 100.54207971 75.33343551 103 75 C105.0568946 72.9431054 104.25747076 68.64444002 104.31640625 65.80859375 C104.3475779 64.57883568 104.3475779 64.57883568 104.37937927 63.32423401 C104.44496494 60.69541099 104.50380126 58.06648496 104.5625 55.4375 C104.60567667 53.65949439 104.64929067 51.88149935 104.69335938 50.10351562 C104.80065543 45.73578366 104.90189704 41.36794773 105 37 C106.65 36.67 108.3 36.34 110 36 C109.98952637 37.07483643 109.97905273 38.14967285 109.96826172 39.25708008 C109.93207221 43.24337435 109.90910337 47.22965408 109.89013672 51.21606445 C109.88007674 52.94167523 109.86642724 54.66726895 109.84912109 56.39282227 C109.82487246 58.8726014 109.81351699 61.35215523 109.8046875 63.83203125 C109.79436493 64.60400345 109.78404236 65.37597565 109.77340698 66.17134094 C109.77260578 69.99281476 109.82757405 71.74136107 112 75 C115.08365871 75.2502157 115.08365871 75.2502157 118 75 C119.60951543 71.78096915 119.24234748 68.25161168 119.31640625 64.7109375 C119.3475779 63.48330185 119.3475779 63.48330185 119.37937927 62.23086548 C119.44484812 59.61233034 119.50374726 56.99369361 119.5625 54.375 C119.60568776 52.60155193 119.64930214 50.82811419 119.69335938 49.0546875 C119.80052676 44.70322954 119.90180169 40.35166923 120 36 C124.75 36.875 124.75 36.875 127 38 C126.938125 38.845625 126.87625 39.69125 126.8125 40.5625 C127.04015628 44.73619843 128.20207814 47.25432947 130 51 C130.66 51 131.32 51 132 51 C132.74926071 54.66305234 133.2380014 57.42355152 132 61 C132.66 61 133.32 61 134 61 C134 65.95 134 70.9 134 76 C135.485 76.495 135.485 76.495 137 77 C136.67 77.99 136.34 78.98 136 80 C135.01 80 134.02 80 133 80 C133 80.66 133 81.32 133 82 C131.35 82.33 129.7 82.66 128 83 C128.309375 83.804375 128.309375 83.804375 128.625 84.625 C129.1314747 87.83267308 128.15400225 90.01317066 127 93 C127.66 93.33 128.32 93.66 129 94 C128.76603516 95.28583984 128.76603516 95.28583984 128.52734375 96.59765625 C127.04120868 105.31675029 127.04120868 105.31675029 128 114 C133.94 113.01 133.94 113.01 140 112 C140.33 114.31 140.66 116.62 141 119 C144.63 119 148.26 119 152 119 C152 119.66 152 120.32 152 121 C151.01 121 150.02 121 149 121 C149 124.3 149 127.6 149 131 C144.2710653 131.99440216 139.90729882 131.96565891 135.125 131.5625 C134.43664062 131.51029297 133.74828125 131.45808594 133.0390625 131.40429688 C131.35887242 131.27594902 129.67935251 131.13887775 128 131 C128 130.34 128 129.68 128 129 C129.32 128.67 130.64 128.34 132 128 C131.195625 127.87625 130.39125 127.7525 129.5625 127.625 C128.716875 127.41875 127.87125 127.2125 127 127 C126.67 126.34 126.34 125.68 126 125 C125.34 127.97 124.68 130.94 124 134 C122.68 134 121.36 134 120 134 C120 134.66 120 135.32 120 136 C118.60974609 135.98259766 118.60974609 135.98259766 117.19140625 135.96484375 C115.39509766 135.95130859 115.39509766 135.95130859 113.5625 135.9375 C112.36753906 135.92589844 111.17257813 135.91429687 109.94140625 135.90234375 C107.11126659 135.66098208 107.11126659 135.66098208 106 137 C105.886027 138.51289258 105.84044087 140.03101642 105.82299805 141.5480957 C105.81016281 142.51612625 105.79732758 143.4841568 105.78410339 144.48152161 C105.77671646 145.53562729 105.76932953 146.58973297 105.76171875 147.67578125 C105.74961113 149.29083809 105.74961113 149.29083809 105.73725891 150.93852234 C105.72339879 153.22258891 105.71268531 155.50667636 105.70483398 157.79077148 C105.68762381 161.28734551 105.64375425 164.78297378 105.59960938 168.27929688 C105.58948284 170.49478469 105.58096661 172.71028057 105.57421875 174.92578125 C105.54795662 176.49783073 105.54795662 176.49783073 105.52116394 178.10163879 C105.45377586 183.72831415 105.45377586 183.72831415 107.8203125 188.66992188 C111.9543549 191.19257678 115.98247972 190.20081161 120.54296875 189.30078125 C139.49929556 184.16042682 154.02173724 175.77970789 168 162 C169.11375 160.90558594 169.11375 160.90558594 170.25 159.7890625 C187.20677602 141.97120019 192.90762155 117.77584794 192.3515625 93.8671875 C191.36922781 71.92366797 180.52509744 50.49721064 165.10546875 35.109375 C163.12545461 33.32527805 161.08616962 31.65896765 159 30 C157.99710938 29.17242188 156.99421875 28.34484375 155.9609375 27.4921875 C149.67087267 22.38845186 143.75885045 18.51055044 136 16 C133.62472456 15.125748 131.24974138 14.25070166 128.875 13.375 C115.83830303 8.7854069 101.4282204 5.37248044 88 10 Z " fill="#FDFDFC" transform="translate(0,0)"/>
<path d="M0 0 C1.98 0 3.96 0 6 0 C6.97905402 4.30783768 7.00505401 6.15819944 5 10 C4.71201426 11.3466 4.46359304 12.70211573 4.25 14.0625 C0.54497517 31.03925554 -14.67045352 45.35343303 -28.5234375 54.703125 C-30.97365334 56.23354372 -33.45157244 57.640041 -36 59 C-36.79277344 59.42925781 -37.58554688 59.85851562 -38.40234375 60.30078125 C-44.32637664 63.24910579 -50.45070133 65.13565911 -56.8125 66.875 C-57.62517334 67.1026001 -58.43784668 67.3302002 -59.27514648 67.56469727 C-63.81004707 68.74176214 -67.38429911 69.40572366 -72 68 C-73.21618998 65.56762005 -73.12688905 64.00860217 -73.12939453 61.29077148 C-73.13254669 60.31313339 -73.13569885 59.3354953 -73.13894653 58.32823181 C-73.1369223 57.26987625 -73.13489807 56.21152069 -73.1328125 55.12109375 C-73.13376923 54.03868912 -73.13472595 52.95628448 -73.13571167 51.84107971 C-73.13639298 49.55038393 -73.13454211 47.25968623 -73.13037109 44.96899414 C-73.12501701 41.44868672 -73.13032044 37.92850659 -73.13671875 34.40820312 C-73.13605806 32.18749972 -73.13477709 29.96679639 -73.1328125 27.74609375 C-73.13483673 26.68571396 -73.13686096 25.62533417 -73.13894653 24.53282166 C-73.13579437 23.55833572 -73.13264221 22.58384979 -73.12939453 21.57983398 C-73.12859894 20.71760727 -73.12780334 19.85538055 -73.12698364 18.96702576 C-73 17 -73 17 -72 16 C-69.81360547 15.92741054 -67.62499611 15.91626217 -65.4375 15.9375 C-63.64119141 15.95103516 -63.64119141 15.95103516 -61.80859375 15.96484375 C-60.88175781 15.97644531 -59.95492187 15.98804688 -59 16 C-59 15.34 -59 14.68 -59 14 C-57.68 14 -56.36 14 -55 14 C-54.34 11.03 -53.68 8.06 -53 5 C-52.67 5.66 -52.34 6.32 -52 7 C-49.47266765 7.65555119 -49.47266765 7.65555119 -47 8 C-48.32 8.33 -49.64 8.66 -51 9 C-51 9.66 -51 10.32 -51 11 C-49.39318359 11.07347656 -49.39318359 11.07347656 -47.75390625 11.1484375 C-46.35674361 11.22345294 -44.9596095 11.2990013 -43.5625 11.375 C-42.85544922 11.4059375 -42.14839844 11.436875 -41.41992188 11.46875 C-39.60760812 11.57280629 -37.80182012 11.77919892 -36 12 C-34.64560332 14.70879335 -34.93498549 17.00933268 -35 20 C-33.68 20 -32.36 20 -31 20 C-30.505 20.99 -30.505 20.99 -30 22 C-29.67 21.34 -29.34 20.68 -29 20 C-28.34 20 -27.68 20 -27 20 C-27 21.65 -27 23.3 -27 25 C-24.69 24.67 -22.38 24.34 -20 24 C-19.67 22.68 -19.34 21.36 -19 20 C-18.01 20 -17.02 20 -16 20 C-16.495 17.03 -16.495 17.03 -17 14 C-13.25 11 -13.25 11 -11 11 C-11 10.34 -11 9.68 -11 9 C-13.475 8.505 -13.475 8.505 -16 8 C-16 7.34 -16 6.68 -16 6 C-9.25 6.875 -9.25 6.875 -7 8 C-5.68 8 -4.36 8 -3 8 C-2.67 7.01 -2.34 6.02 -2 5 C-1.67 4.34 -1.34 3.68 -1 3 C-0.67 2.01 -0.34 1.02 0 0 Z " fill="#CF8833" transform="translate(179,120)"/>
<path d="M0 0 C2.97 0.495 2.97 0.495 6 1 C4.68 1.33 3.36 1.66 2 2 C2 2.99 2 3.98 2 5 C2.33 4.67 2.66 4.34 3 4 C4.66617115 3.95936168 6.33388095 3.957279 8 4 C8.02505615 5.08007324 8.0501123 6.16014648 8.07592773 7.27294922 C8.16995572 11.27242312 8.27018754 15.27172147 8.37231445 19.27099609 C8.4156808 21.00337626 8.45735463 22.73579963 8.49731445 24.46826172 C8.55497594 26.95553627 8.61868198 29.44259293 8.68359375 31.9296875 C8.70030624 32.70682098 8.71701874 33.48395447 8.73423767 34.28463745 C8.76473429 38.27274216 8.76473429 38.27274216 10 42 C11.66611905 42.042721 13.33382885 42.04063832 15 42 C17.0568946 39.9431054 16.25747076 35.64444002 16.31640625 32.80859375 C16.33718735 31.98875504 16.35796844 31.16891632 16.37937927 30.32423401 C16.44496494 27.69541099 16.50380126 25.06648496 16.5625 22.4375 C16.60567667 20.65949439 16.64929067 18.88149935 16.69335938 17.10351562 C16.80065543 12.73578366 16.90189704 8.36794773 17 4 C20.01031744 3.06576355 20.86650268 2.95550089 24 4 C23.99476318 5.08007324 23.98952637 6.16014648 23.98413086 7.27294922 C23.96605892 11.27228978 23.95455993 15.27162672 23.94506836 19.27099609 C23.94003318 21.00342414 23.93320468 22.73584792 23.92456055 24.46826172 C23.91245935 26.95541433 23.90676362 29.44251087 23.90234375 31.9296875 C23.89718246 32.70682098 23.89202118 33.48395447 23.88670349 34.28463745 C23.79671948 38.27170906 23.79671948 38.27170906 25 42 C26.65 42 28.3 42 30 42 C30.02505615 40.88439697 30.0501123 39.76879395 30.07592773 38.61938477 C30.16983421 34.4950741 30.27009514 30.3709385 30.37231445 26.24682617 C30.415727 24.4591073 30.45739729 22.67134526 30.49731445 20.88354492 C30.5548646 18.31936609 30.61860203 15.75540588 30.68359375 13.19140625 C30.70030624 12.3872377 30.71701874 11.58306915 30.73423767 10.75453186 C30.88612829 5.11387171 30.88612829 5.11387171 32 4 C33.66617115 3.95936168 35.33388095 3.957279 37 4 C37.02505615 5.08007324 37.0501123 6.16014648 37.07592773 7.27294922 C37.16995572 11.27242312 37.27018754 15.27172147 37.37231445 19.27099609 C37.4156808 21.00337626 37.45735463 22.73579963 37.49731445 24.46826172 C37.55497594 26.95553627 37.61868198 29.44259293 37.68359375 31.9296875 C37.70030624 32.70682098 37.71701874 33.48395447 37.73423767 34.28463745 C37.76473429 38.27274216 37.76473429 38.27274216 39 42 C41.97 42.495 41.97 42.495 45 43 C45.33 30.13 45.66 17.26 46 4 C50 3 50 3 52.75 4.0625 C53.86375 5.0215625 53.86375 5.0215625 55 6 C55.1875 8.9375 55.1875 8.9375 55 12 C55.94978897 14.15028304 55.94978897 14.15028304 57 16 C57 16.99 57 17.98 57 19 C57.66 19 58.32 19 59 19 C60.31626692 22.61973402 61 25.09567131 61 29 C61.25770867 30.96502864 61.51565578 32.93002858 61.77734375 34.89453125 C62.10011076 37.94666138 62.06389269 40.93315093 62 44 C62.99 44.495 62.99 44.495 64 45 C63.67 46.32 63.34 47.64 63 49 C61.865625 49.268125 60.73125 49.53625 59.5625 49.8125 C58.386875 50.204375 57.21125 50.59625 56 51 C55.67 51.99 55.34 52.98 55 54 C55.99 54.495 55.99 54.495 57 55 C56.62875 55.7425 56.2575 56.485 55.875 57.25 C54.70484137 59.94283647 54.70484137 59.94283647 55.875 62.3125 C56.24625 62.869375 56.6175 63.42625 57 64 C56.67 64.33 56.34 64.66 56 65 C55.14022355 70.15865869 54.72255506 74.89022022 56 80 C55.67 80.66 55.34 81.32 55 82 C55.495 81.67 55.99 81.34 56.5 81 C60.09090894 79.56363642 63.14456127 79.87148538 67 80 C67.495 83.465 67.495 83.465 68 87 C68.66 86.67 69.32 86.34 70 86 C71.49649362 85.87994547 72.99874793 85.82468549 74.5 85.8125 C75.2940625 85.79832031 76.088125 85.78414063 76.90625 85.76953125 C79 86 79 86 81 88 C80.34 88.66 79.68 89.32 79 90 C77.515 89.505 77.515 89.505 76 89 C76.33 89.99 76.66 90.98 77 92 C77.03954234 94.33299825 77.04401732 96.66708189 77 99 C70.06072914 102.92965451 62.34886547 100.9457989 55 99 C55.495 97.515 55.495 97.515 56 96 C55.01 95.505 55.01 95.505 54 95 C53.01 97.31 52.02 99.62 51 102 C49.68 102 48.36 102 47 102 C47 102.66 47 103.32 47 104 C43.7 104 40.4 104 37 104 C38.98 103.01 38.98 103.01 41 102 C46.18314554 98.86851624 50.04181021 95.87456936 52 90 C52.08494728 87.34105893 52.11594796 84.70914623 52.09765625 82.05078125 C52.0962413 81.27816452 52.09482635 80.50554779 52.09336853 79.70951843 C52.08777466 77.24380611 52.07522333 74.77818485 52.0625 72.3125 C52.05748421 70.63997527 52.05292144 68.96744912 52.04882812 67.29492188 C52.03780724 63.19657954 52.02054684 59.09830521 52 55 C51.36328873 55.00222061 50.72657745 55.00444122 50.0705719 55.00672913 C43.46884724 55.0287804 36.86713296 55.04390593 30.26538086 55.05493164 C27.79857967 55.05997356 25.33178148 55.06680691 22.86499023 55.07543945 C19.32795471 55.08751125 15.79095855 55.09322956 12.25390625 55.09765625 C11.14350479 55.10281754 10.03310333 55.10797882 8.88905334 55.11329651 C7.35757912 55.11340981 7.35757912 55.11340981 5.79516602 55.11352539 C4.43948265 55.11685631 4.43948265 55.11685631 3.05641174 55.12025452 C1 55 1 55 0 54 C-0.09353163 52.31198015 -0.11744791 50.62004793 -0.11352539 48.92944336 C-0.11344986 47.84839828 -0.11337433 46.76735321 -0.11329651 45.65354919 C-0.10813522 44.4775264 -0.10297394 43.3015036 -0.09765625 42.08984375 C-0.0962413 40.89267227 -0.09482635 39.69550079 -0.09336853 38.46205139 C-0.08774979 34.62050934 -0.07519411 30.77902457 -0.0625 26.9375 C-0.05748741 24.34049563 -0.05292409 21.74349035 -0.04882812 19.14648438 C-0.03777427 12.76430321 -0.02101792 6.3821557 0 0 Z " fill="#D19139" transform="translate(73,32)"/>
<path d="M0 0 C4.70588235 0.70588235 4.70588235 0.70588235 6 2 C6.09311889 3.50418739 6.11746028 5.01271356 6.11352539 6.51977539 C6.11344986 7.48069595 6.11337433 8.44161652 6.11329651 9.43165588 C6.10813522 10.476436 6.10297394 11.52121613 6.09765625 12.59765625 C6.0962413 13.66165146 6.09482635 14.72564667 6.09336853 15.82188416 C6.08775064 19.23545083 6.07519511 22.648953 6.0625 26.0625 C6.05748731 28.37044176 6.052924 30.67838455 6.04882812 32.98632812 C6.03862433 38.65759721 6.01905243 44.32872601 6 50 C-2.25 49.67 -10.5 49.34 -19 49 C-18.67 47.35 -18.34 45.7 -18 44 C-18.66 43.01 -19.32 42.02 -20 41 C-19.01 40.34 -18.02 39.68 -17 39 C-16.67453222 36.18086907 -16.53498068 33.57033089 -16.5234375 30.74609375 C-16.50785797 29.93004166 -16.49227844 29.11398956 -16.47622681 28.27320862 C-16.4286047 25.66131559 -16.40090841 23.0496912 -16.375 20.4375 C-16.33856273 17.82192704 -16.29799062 15.20650816 -16.25234985 12.59107971 C-16.22503446 10.9618884 -16.20372205 9.33258388 -16.18881226 7.70323181 C-16.11064685 2.11064685 -16.11064685 2.11064685 -15 1 C-13.33382885 0.95936168 -11.66611905 0.957279 -10 1 C-9.97494385 2.08007324 -9.9498877 3.16014648 -9.92407227 4.27294922 C-9.83004428 8.27242312 -9.72981246 12.27172147 -9.62768555 16.27099609 C-9.5843192 18.00337626 -9.54264537 19.73579963 -9.50268555 21.46826172 C-9.44502406 23.95553627 -9.38131802 26.44259293 -9.31640625 28.9296875 C-9.29969376 29.70682098 -9.28298126 30.48395447 -9.26576233 31.28463745 C-9.23526571 35.27274216 -9.23526571 35.27274216 -8 39 C-4.97065509 39.65772428 -4.97065509 39.65772428 -2 40 C-1.97494385 38.82381104 -1.9498877 37.64762207 -1.92407227 36.43579102 C-1.83017194 32.08785378 -1.72990952 27.74008284 -1.62768555 23.39233398 C-1.58427067 21.50760782 -1.54260057 19.62284064 -1.50268555 17.73803711 C-1.44514107 15.03486751 -1.38140196 12.33190564 -1.31640625 9.62890625 C-1.29969376 8.78099014 -1.28298126 7.93307404 -1.26576233 7.0594635 C-1.11387171 1.11387171 -1.11387171 1.11387171 0 0 Z " fill="#FBFAF6" transform="translate(120,35)"/>
<path d="M0 0 C-0.01047363 1.07483643 -0.02094727 2.14967285 -0.03173828 3.25708008 C-0.06792779 7.24337435 -0.09089663 11.22965408 -0.10986328 15.21606445 C-0.11992326 16.94167523 -0.13357276 18.66726895 -0.15087891 20.39282227 C-0.17512754 22.8726014 -0.18648301 25.35215523 -0.1953125 27.83203125 C-0.20563507 28.60400345 -0.21595764 29.37597565 -0.22659302 30.17134094 C-0.22739422 33.99281476 -0.17242595 35.74136107 2 39 C1.835 39.804375 1.67 40.60875 1.5 41.4375 C0.66265721 44.34236111 0.66265721 44.34236111 3 48 C-5.25 48 -13.5 48 -22 48 C-22.02290404 41.32474596 -22.04283264 34.6496272 -22.05493164 27.97436523 C-22.05997325 25.70157409 -22.06680637 23.4287862 -22.07543945 21.15600586 C-22.08751261 17.89696449 -22.09322987 14.63796583 -22.09765625 11.37890625 C-22.10281754 10.35599991 -22.10797882 9.33309357 -22.11329651 8.27919006 C-22.11337204 7.33829025 -22.11344757 6.39739044 -22.11352539 5.42797852 C-22.115746 4.59524918 -22.11796661 3.76251984 -22.12025452 2.90455627 C-22 1 -22 1 -21 0 C-19.33382885 -0.04063832 -17.66611905 -0.042721 -16 0 C-15.97494385 1.08007324 -15.9498877 2.16014648 -15.92407227 3.27294922 C-15.83004428 7.27242312 -15.72981246 11.27172147 -15.62768555 15.27099609 C-15.5843192 17.00337626 -15.54264537 18.73579963 -15.50268555 20.46826172 C-15.44502406 22.95553627 -15.38131802 25.44259293 -15.31640625 27.9296875 C-15.29969376 28.70682098 -15.28298126 29.48395447 -15.26576233 30.28463745 C-15.23526571 34.27274216 -15.23526571 34.27274216 -14 38 C-12.33388095 38.042721 -10.66617115 38.04063832 -9 38 C-6.9431054 35.9431054 -7.74252924 31.64444002 -7.68359375 28.80859375 C-7.66281265 27.98875504 -7.64203156 27.16891632 -7.62062073 26.32423401 C-7.55503506 23.69541099 -7.49619874 21.06648496 -7.4375 18.4375 C-7.39432333 16.65949439 -7.35070933 14.88149935 -7.30664062 13.10351562 C-7.19934457 8.73578366 -7.09810296 4.36794773 -7 0 C-4.3333581 -1.33332095 -2.83319697 -0.67102033 0 0 Z " fill="#F4E9D6" transform="translate(97,36)"/>
<path d="M0 0 C1.98 0 3.96 0 6 0 C6.97905402 4.30783768 7.00505401 6.15819944 5 10 C4.71201426 11.3466 4.46359304 12.70211573 4.25 14.0625 C1.55529224 26.40989229 -8.44226449 39.92783267 -19 47 C-19 46.01 -19 45.02 -19 44 C-18.34 44 -17.68 44 -17 44 C-16.67 42.35 -16.34 40.7 -16 39 C-16.99 38.34 -17.98 37.68 -19 37 C-19 36.34 -19 35.68 -19 35 C-18.34 35 -17.68 35 -17 35 C-17.495 33.515 -17.495 33.515 -18 32 C-17.67 31.01 -17.34 30.02 -17 29 C-20.3 29 -23.6 29 -27 29 C-27 28.67 -27 28.34 -27 28 C-23.04 27.505 -23.04 27.505 -19 27 C-19.33 26.01 -19.66 25.02 -20 24 C-19.5625 21.8125 -19.5625 21.8125 -19 20 C-18.01 20 -17.02 20 -16 20 C-16.33 18.02 -16.66 16.04 -17 14 C-13.25 11 -13.25 11 -11 11 C-11 10.34 -11 9.68 -11 9 C-12.65 8.67 -14.3 8.34 -16 8 C-16 7.34 -16 6.68 -16 6 C-9.25 6.875 -9.25 6.875 -7 8 C-5.68 8 -4.36 8 -3 8 C-2.67 7.01 -2.34 6.02 -2 5 C-1.67 4.34 -1.34 3.68 -1 3 C-0.67 2.01 -0.34 1.02 0 0 Z " fill="#E1A343" transform="translate(179,120)"/>
<path d="M0 0 C13.63062072 14.64029633 14.74886973 37.14052619 14.17041016 55.95898438 C13.40643275 69.5923691 8.79696081 81.29355004 2 93 C1.49339844 93.87269531 0.98679687 94.74539062 0.46484375 95.64453125 C-12.66632994 116.53004707 -33.32760887 130.55247134 -57.0625 136.375 C-60.82198674 136.97174393 -64.20488602 137.30980522 -68 137 C-68.66 136.34 -69.32 135.68 -70 135 C-68.700625 134.938125 -67.40125 134.87625 -66.0625 134.8125 C-49.24688556 133.05493578 -32.884534 125.91297815 -20 115 C-18.948125 114.16275391 -18.948125 114.16275391 -17.875 113.30859375 C-6.06463945 103.48713072 3.47811323 90.57105264 5.640625 75.15234375 C6 73 6 73 7 72 C7.07258946 69.81360547 7.08373783 67.62499611 7.0625 65.4375 C7.05347656 64.23996094 7.04445313 63.04242188 7.03515625 61.80859375 C7.02355469 60.88175781 7.01195312 59.95492187 7 59 C5.02 59.99 5.02 59.99 3 61 C3.66 58.36 4.32 55.72 5 53 C3.35 53 1.7 53 0 53 C0.66 51.68 1.32 50.36 2 49 C2.66 49 3.32 49 4 49 C4 48.01 4 47.02 4 46 C4.66 46 5.32 46 6 46 C6 43.69 6 41.38 6 39 C7.32 39 8.64 39 10 39 C9.84498572 31.05199524 8.42899005 24.92795227 5.140625 17.69921875 C3.73093403 14.36327196 3.29905954 11.5887145 3 8 C2.69096017 6.66082739 2.37057089 5.32346746 2 4 C1.34 4 0.68 4 0 4 C0 2.68 0 1.36 0 0 Z " fill="#D38B3C" transform="translate(178,53)"/>
<path d="M0 0 C0.66 1.32 1.32 2.64 2 4 C1.67 4.99 1.34 5.98 1 7 C1.495 6.67 1.99 6.34 2.5 6 C6.09090894 4.56363642 9.14456127 4.87148538 13 5 C13.33 7.31 13.66 9.62 14 12 C14.66 11.67 15.32 11.34 16 11 C17.49649362 10.87994547 18.99874793 10.82468549 20.5 10.8125 C21.2940625 10.79832031 22.088125 10.78414062 22.90625 10.76953125 C25 11 25 11 27 13 C26.34 13.66 25.68 14.32 25 15 C24.01 14.67 23.02 14.34 22 14 C22.33 14.99 22.66 15.98 23 17 C23.03954234 19.33299825 23.04401732 21.66708189 23 24 C16.06072914 27.92965451 8.34886547 25.9457989 1 24 C1.33 23.01 1.66 22.02 2 21 C1.34 20.67 0.68 20.34 0 20 C0 13.4 0 6.8 0 0 Z " fill="#DB973E" transform="translate(127,107)"/>
<path d="M0 0 C0.33 0 0.66 0 1 0 C1.01458252 0.95253662 1.02916504 1.90507324 1.04418945 2.88647461 C1.1026689 6.4595885 1.17989273 10.03210447 1.26245117 13.60473633 C1.29546921 15.14369926 1.32357122 16.68277656 1.34643555 18.22192383 C1.49338438 30.41053316 1.49338438 30.41053316 5 42 C7.12447544 43.55177592 7.12447544 43.55177592 10 44 C11.52775375 44.41268482 13.04831261 44.85252518 14.5625 45.3125 C15.30628906 45.51488281 16.05007812 45.71726563 16.81640625 45.92578125 C19.97217776 47.47826276 21.13229663 48.98929104 23 52 C23.5788499 55.31449699 23.53705013 58.57992118 23.49609375 61.9375 C23.49754898 62.89519287 23.49900421 63.85288574 23.50050354 64.83959961 C23.49884686 66.86021981 23.48731144 68.88085294 23.46655273 70.90136719 C23.43759864 73.98947905 23.44594885 77.07587324 23.45898438 80.1640625 C23.45274653 82.13021665 23.44435522 84.0963654 23.43359375 86.0625 C23.43652939 86.98345459 23.43946503 87.90440918 23.44248962 88.85327148 C23.37150812 93.69049619 23.20644266 97.1042579 20 101 C14.04279128 103.97860436 6.80978817 101.60869748 0.87109375 99.65625 C0.25363281 99.4396875 -0.36382812 99.223125 -1 99 C-1 98.67 -1 98.34 -1 98 C5.02596573 96.9287172 10.88909517 96.90054585 17 97 C17 96.34 17 95.68 17 95 C17.66 95 18.32 95 19 95 C19.04952523 89.53736689 19.08577896 84.07486518 19.10986328 78.61206055 C19.11990615 76.75461551 19.13354304 74.89718621 19.15087891 73.03979492 C19.17520261 70.36633409 19.18650033 67.69308274 19.1953125 65.01953125 C19.20563507 64.19226028 19.21595764 63.36498932 19.22659302 62.51264954 C19.22741674 58.25704191 19.11066521 54.82421954 17 51 C15.02969412 49.6582216 15.02969412 49.6582216 12.6875 48.875 C9.22782837 47.5000023 6.16087159 45.98683357 3 44 C1.67391178 43.31903578 0.34313399 42.64669414 -1 42 C-0.34 42 0.32 42 1 42 C0.85127441 41.47100098 0.70254883 40.94200195 0.54931641 40.39697266 C-1.47881079 32.0475897 -1.00615709 23.87178401 -0.625 15.375 C-0.56662382 13.87894817 -0.50932401 12.38285394 -0.453125 10.88671875 C-0.31447929 7.25723993 -0.16131142 3.62855047 0 0 Z " fill="#BA864D" transform="translate(73,88)"/>
<path d="M0 0 C3.12864533 1.56207024 3.12864533 1.56207024 6.578125 2.84765625 C10.5877406 4.72591472 13.45544503 7.01113311 16.73046875 9.9375 C17.82633462 10.89509034 18.92268163 11.85213038 20.01953125 12.80859375 C20.54281006 13.27048096 21.06608887 13.73236816 21.60522461 14.20825195 C22.93573502 15.35385498 24.32021719 16.436103 25.7109375 17.5078125 C28.42660311 19.76717541 30.55900379 22.20288415 32.79296875 24.9375 C33.55996094 25.86433594 34.32695312 26.79117188 35.1171875 27.74609375 C36.96286267 30.30248077 38.09746408 32.52988997 39.10546875 35.5 C37.62046875 35.005 37.62046875 35.005 36.10546875 34.5 C35.77546875 33.51 35.44546875 32.52 35.10546875 31.5 C33.63366896 30.28985351 32.15917419 29.08251288 30.66015625 27.90625 C29.10546875 26.5 29.10546875 26.5 26.91796875 23.1875 C26.31984375 22.300625 25.72171875 21.41375 25.10546875 20.5 C24.11546875 20.5 23.12546875 20.5 22.10546875 20.5 C21.77546875 18.85 21.44546875 17.2 21.10546875 15.5 C19.78546875 15.17 18.46546875 14.84 17.10546875 14.5 C17.10546875 13.84 17.10546875 13.18 17.10546875 12.5 C14.79546875 11.84 12.48546875 11.18 10.10546875 10.5 C9.77546875 8.85 9.44546875 7.2 9.10546875 5.5 C8.11546875 5.3453125 8.11546875 5.3453125 7.10546875 5.1875 C3.26705866 4.30786436 -0.22549816 2.93030104 -3.89453125 1.5 C-3.89453125 0.84 -3.89453125 0.18 -3.89453125 -0.5 C-4.76078125 -0.479375 -5.62703125 -0.45875 -6.51953125 -0.4375 C-9.89453125 -0.5 -9.89453125 -0.5 -12.83203125 -1 C-15.97362855 -1.59735052 -15.97362855 -1.59735052 -19.51953125 -1.5 C-22.27591486 -1.5 -24.30256981 -1.67057234 -26.89453125 -2.5 C-26.89453125 -3.49 -26.89453125 -4.48 -26.89453125 -5.5 C-30.24867924 -5.52929977 -33.60279378 -5.5468989 -36.95703125 -5.5625 C-38.37145508 -5.57506836 -38.37145508 -5.57506836 -39.81445312 -5.58789062 C-43.9147377 -5.60217733 -47.8469998 -5.59343564 -51.890625 -4.87109375 C-54.89453125 -4.5 -54.89453125 -4.5 -57.89453125 -6.5 C-56.86328125 -6.62375 -55.83203125 -6.7475 -54.76953125 -6.875 C-51.0118077 -7.34860125 -51.0118077 -7.34860125 -48.08203125 -8.5625 C-33.02473903 -12.99111536 -13.51075352 -6.57557586 0 0 Z " fill="#BB8A57" transform="translate(138.89453125,17.5)"/>
<path d="M0 0 C0.66 0 1.32 0 2 0 C1.83701416 0.79293457 1.67402832 1.58586914 1.50610352 2.40283203 C0.88488295 6.81820289 0.87580635 11.1027738 0.90234375 15.5546875 C0.9037587 16.45623566 0.90517365 17.35778381 0.90663147 18.28665161 C0.9122026 21.149469 0.92474974 24.01220648 0.9375 26.875 C0.94251873 28.82291553 0.94708099 30.7708323 0.95117188 32.71875 C0.96216258 37.47919718 0.97940723 42.23958507 1 47 C5.04407282 49.3057398 7.05312216 48.82544871 11.5625 47.625 C17.78695652 46 17.78695652 46 21 46 C21 45.34 21 44.68 21 44 C20.01 44 19.02 44 18 44 C18 42.68 18 41.36 18 40 C24.0546875 39.8046875 24.0546875 39.8046875 26 40 C26.66 40.66 27.32 41.32 28 42 C30.23344065 41.80109544 30.23344065 41.80109544 32.625 41.125 C33.44226563 40.92132813 34.25953125 40.71765625 35.1015625 40.5078125 C36.04128906 40.25644531 36.04128906 40.25644531 37 40 C37 38.68 37 37.36 37 36 C39.95664519 34.5216774 42.74229737 34.93967217 46 35 C46.33 34.01 46.66 33.02 47 32 C48.65 31.67 50.3 31.34 52 31 C43.9249366 42.40008951 26.64250667 47.94698702 13.625 51.375 C12.95871582 51.55514648 12.29243164 51.73529297 11.60595703 51.92089844 C7.43762489 52.94594969 4.14952619 53.16587896 0 52 C-1.21618998 49.56762005 -1.12688905 48.00860217 -1.12939453 45.29077148 C-1.13254669 44.31313339 -1.13569885 43.3354953 -1.13894653 42.32823181 C-1.1369223 41.26987625 -1.13489807 40.21152069 -1.1328125 39.12109375 C-1.13376923 38.03868912 -1.13472595 36.95628448 -1.13571167 35.84107971 C-1.13639298 33.55038393 -1.13454211 31.25968623 -1.13037109 28.96899414 C-1.12501701 25.44868672 -1.13032044 21.92850659 -1.13671875 18.40820312 C-1.13605806 16.18749972 -1.13477709 13.96679639 -1.1328125 11.74609375 C-1.13483673 10.68571396 -1.13686096 9.62533417 -1.13894653 8.53282166 C-1.13579437 7.55833572 -1.13264221 6.58384979 -1.12939453 5.57983398 C-1.12859894 4.71760727 -1.12780334 3.85538055 -1.12698364 2.96702576 C-1 1 -1 1 0 0 Z " fill="#C08F4A" transform="translate(107,136)"/>
<path d="M0 0 C2.97 0.495 2.97 0.495 6 1 C4.68 1.33 3.36 1.66 2 2 C1.67 18.5 1.34 35 1 52 C13.375 51.505 13.375 51.505 26 51 C25.34 49.68 24.68 48.36 24 47 C24.66 47 25.32 47 26 47 C26 45.68 26 44.36 26 43 C27.485 43.495 27.485 43.495 29 44 C29 50 29 50 28 52 C35.59 52 43.18 52 51 52 C51 52.99 51 53.98 51 55 C43.89755001 55.02526787 36.79511152 55.04283201 29.69262695 55.05493164 C27.27432828 55.05997349 24.85603267 55.06680678 22.43774414 55.07543945 C18.97020717 55.08751157 15.50271034 55.09322963 12.03515625 55.09765625 C10.94662857 55.10281754 9.85810089 55.10797882 8.73658752 55.11329651 C7.23514442 55.11340981 7.23514442 55.11340981 5.70336914 55.11352539 C4.37433311 55.11685631 4.37433311 55.11685631 3.01844788 55.12025452 C1 55 1 55 0 54 C-0.09353163 52.31198015 -0.11744791 50.62004793 -0.11352539 48.92944336 C-0.11344986 47.84839828 -0.11337433 46.76735321 -0.11329651 45.65354919 C-0.10813522 44.4775264 -0.10297394 43.3015036 -0.09765625 42.08984375 C-0.0962413 40.89267227 -0.09482635 39.69550079 -0.09336853 38.46205139 C-0.08774979 34.62050934 -0.07519411 30.77902457 -0.0625 26.9375 C-0.05748741 24.34049563 -0.05292409 21.74349035 -0.04882812 19.14648438 C-0.03777427 12.76430321 -0.02101792 6.3821557 0 0 Z " fill="#BB8C52" transform="translate(73,32)"/>
<path d="M0 0 C1.48828125 1.30078125 1.48828125 1.30078125 3 3 C3.1875 6.1875 3.1875 6.1875 3 9 C3.66 9 4.32 9 5 9 C4.95875 8.05125 4.9175 7.1025 4.875 6.125 C5 3 5 3 7 1 C7 12.88 7 24.76 7 37 C5.35 37.66 3.7 38.32 2 39 C-0.52561648 35.21157527 -0.25391573 32.21466671 -0.1953125 27.83203125 C-0.1924826 27.03721848 -0.18965271 26.2424057 -0.18673706 25.42350769 C-0.17554705 22.88635162 -0.15044491 20.34954928 -0.125 17.8125 C-0.11496866 16.09180198 -0.10584308 14.37109841 -0.09765625 12.65039062 C-0.07561161 8.43345757 -0.04109006 4.21678875 0 0 Z " fill="#D49E58" transform="translate(110,36)"/>
<path d="M0 0 C0.33 0 0.66 0 1 0 C1.75658874 20.13366704 -0.81118909 36.45174449 -11 54 C-11.50660156 54.87269531 -12.01320313 55.74539062 -12.53515625 56.64453125 C-25.66632994 77.53004707 -46.32760887 91.55247134 -70.0625 97.375 C-73.82198674 97.97174393 -77.20488602 98.30980522 -81 98 C-81.66 97.34 -82.32 96.68 -83 96 C-81.700625 95.938125 -80.40125 95.87625 -79.0625 95.8125 C-62.24688556 94.05493578 -45.884534 86.91297815 -33 76 C-31.948125 75.16275391 -31.948125 75.16275391 -30.875 74.30859375 C-12.37824269 58.92674175 -3.14959605 37.0939691 -0.75195312 13.56591797 C-0.36296562 9.04717983 -0.12665979 4.53442048 0 0 Z " fill="#321E0E" transform="translate(191,92)"/>
<path d="M0 0 C1.98 0 3.96 0 6 0 C5.67 0.99 5.34 1.98 5 3 C4.84677641 5.58330229 4.74293111 8.14492239 4.68359375 10.73046875 C4.66281265 11.48088943 4.64203156 12.23131012 4.62062073 13.00447083 C4.55530074 15.39872184 4.49632208 17.79308139 4.4375 20.1875 C4.39429807 21.81186013 4.35068324 23.43620933 4.30664062 25.06054688 C4.19963737 29.04025371 4.09832063 33.02006958 4 37 C2.515 37.495 2.515 37.495 1 38 C-0.20882096 40.00016466 -0.20882096 40.00016466 -1 42 C-2.58645357 38.82709287 -2.12078213 35.41174616 -2.09765625 31.9296875 C-2.09553383 30.73534592 -2.09553383 30.73534592 -2.09336853 29.51687622 C-2.08776345 26.9695462 -2.07521014 24.42230353 -2.0625 21.875 C-2.05748565 20.14974085 -2.05292263 18.42448033 -2.04882812 16.69921875 C-2.03779237 12.46611209 -2.02052436 8.23307086 -2 4 C-3.32 3.67 -4.64 3.34 -6 3 C-4.02 2.67 -2.04 2.34 0 2 C0 1.34 0 0.68 0 0 Z " fill="#D09C55" transform="translate(83,32)"/>
<path d="M0 0 C2.81223724 2.40488042 2.9820885 2.80999088 3.35644531 6.78125 C3.36273198 8.35418243 3.35220829 9.92723939 3.328125 11.5 C3.32531525 12.74813477 3.32531525 12.74813477 3.32244873 14.02148438 C3.31572901 15.7799887 3.30181605 17.5384781 3.28125 19.296875 C3.25011879 21.98972456 3.24028073 24.68198838 3.234375 27.375 C3.22520372 29.08334047 3.21482756 30.79167499 3.203125 32.5 C3.19675018 33.70946289 3.19675018 33.70946289 3.19024658 34.94335938 C3.14845794 38.20935605 3.03975456 40.88073632 2 44 C0.35 44 -1.3 44 -3 44 C-3 43.34 -3 42.68 -3 42 C-3.66 42 -4.32 42 -5 42 C-4.67854004 41.34749268 -4.35708008 40.69498535 -4.02587891 40.02270508 C-2.73388382 36.21590089 -2.64623647 32.6126395 -2.5859375 28.63671875 C-2.56657135 27.84473587 -2.5472052 27.05275299 -2.5272522 26.23677063 C-2.46772768 23.72045481 -2.42118042 21.20409256 -2.375 18.6875 C-2.33679519 16.9758921 -2.29774201 15.26430291 -2.2578125 13.55273438 C-2.1620487 9.36864251 -2.0779182 5.18446069 -2 1 C-1.34 0.67 -0.68 0.34 0 0 Z " fill="#FCFDF6" transform="translate(121,36)"/>
<path d="M0 0 C0.33 0 0.66 0 1 0 C1.07449251 4.44739413 1.12876257 8.8944519 1.16479492 13.34228516 C1.17982543 14.85341727 1.20025564 16.36450618 1.22631836 17.87548828 C1.26295689 20.05512187 1.27978338 22.23417575 1.29296875 24.4140625 C1.3086792 25.7232666 1.32438965 27.0324707 1.34057617 28.38134766 C0.9765967 32.24866211 -0.04858416 34.67336493 -2 38 C-2.66 38 -3.32 38 -4 38 C-4.226875 38.598125 -4.45375 39.19625 -4.6875 39.8125 C-7.69396613 44.82327689 -12.55514031 45.4443258 -18 47 C-18.33 62.84 -18.66 78.68 -19 95 C-19.33 95 -19.66 95 -20 95 C-21.02439714 89.91531155 -21.16100771 85.03662985 -21.16796875 79.875 C-21.17129715 79.00987793 -21.17462555 78.14475586 -21.17805481 77.25341797 C-21.18309861 75.43132048 -21.18546393 73.60921383 -21.18530273 71.78710938 C-21.18749294 69.00895958 -21.20568579 66.23120487 -21.22460938 63.453125 C-21.22754314 61.67708468 -21.22952805 59.90104249 -21.23046875 58.125 C-21.23765427 57.29983887 -21.24483978 56.47467773 -21.25224304 55.62451172 C-21.23064449 50.14166026 -21.08414315 45.08414315 -17 41 C-14.66666667 40.66666667 -12.33333333 40.33333333 -10 40 C-9.34 39.34 -8.68 38.68 -8 38 C-7.01 38 -6.02 38 -5 38 C-4.67 37.34 -4.34 36.68 -4 36 C-3.34 35.01 -2.68 34.02 -2 33 C-1.6470912 30.07760283 -1.6470912 30.07760283 -1.62109375 26.7578125 C-1.58693359 25.52675781 -1.55277344 24.29570313 -1.51757812 23.02734375 C-1.49115234 21.73957031 -1.46472656 20.45179687 -1.4375 19.125 C-1.37740927 16.58584695 -1.31374636 14.04677532 -1.24609375 11.5078125 C-1.22216553 10.38004395 -1.1982373 9.25227539 -1.17358398 8.09033203 C-1.01630522 5.29028342 -0.63143169 2.72740318 0 0 Z " fill="#F1D0AB" transform="translate(125,90)"/>
<path d="M0 0 C1.98 0.66 3.96 1.32 6 2 C6.04936883 6.80548597 6.08570443 11.61082494 6.10986328 16.41650391 C6.11993254 18.05194672 6.13358881 19.68737149 6.15087891 21.32275391 C6.17508705 23.6709437 6.18647357 26.01889588 6.1953125 28.3671875 C6.20563507 29.10057343 6.21595764 29.83395935 6.22659302 30.58956909 C6.22699368 32.39462697 6.12212755 34.1990783 6 36 C5.34 36.66 4.68 37.32 4 38 C2.68 38 1.36 38 0 38 C-1.31134718 34.09686563 -1.03043509 30.22457296 -0.87890625 26.171875 C-0.85529526 25.42286926 -0.83168427 24.67386353 -0.80735779 23.90216064 C-0.73099344 21.51790112 -0.64685283 19.13398895 -0.5625 16.75 C-0.50925201 15.13022514 -0.4565118 13.51043349 -0.40429688 11.890625 C-0.27541537 7.92686479 -0.13956072 3.96339799 0 0 Z " fill="#C68A3B" transform="translate(97,36)"/>
<path d="M0 0 C1.65 0 3.3 0 5 0 C5.33 1.32 5.66 2.64 6 4 C5.34 4 4.68 4 4 4 C4 4.99 4 5.98 4 7 C5.32 7.33 6.64 7.66 8 8 C7.67 8.99 7.34 9.98 7 11 C8.05270463 12.15811388 8.05270463 12.15811388 10 13 C10.66 10.69 11.32 8.38 12 6 C13.32 6.33 14.64 6.66 16 7 C15.67 5.68 15.34 4.36 15 3 C15.99 2.67 16.98 2.34 18 2 C18.33 2.99 18.66 3.98 19 5 C14.38822414 13.19871264 7.42556387 20.1925891 1 27 C0.67 26.01 0.34 25.02 0 24 C0.66 24 1.32 24 2 24 C2.33 22.35 2.66 20.7 3 19 C2.01 18.34 1.02 17.68 0 17 C0 16.34 0 15.68 0 15 C0.66 15 1.32 15 2 15 C1.67 14.01 1.34 13.02 1 12 C1.33 11.01 1.66 10.02 2 9 C-1.3 9 -4.6 9 -8 9 C-8 8.67 -8 8.34 -8 8 C-5.36 7.67 -2.72 7.34 0 7 C-0.33 6.01 -0.66 5.02 -1 4 C-0.5625 1.8125 -0.5625 1.8125 0 0 Z " fill="#DF9C3D" transform="translate(160,140)"/>
<path d="M0 0 C-1.84441556 1.84441556 -4.83319118 1.82747674 -7.3125 2.3125 C-25.47621918 6.15482521 -39.40162766 13.55433737 -53 26 C-53.79792969 26.71542969 -54.59585938 27.43085937 -55.41796875 28.16796875 C-60.10926193 32.5776083 -63.21055982 37.20654732 -66 43 C-66.66 43 -67.32 43 -68 43 C-68.103125 43.515625 -68.20625 44.03125 -68.3125 44.5625 C-69.24263866 47.86026435 -70.61395512 50.86633332 -72 54 C-72.33 54 -72.66 54 -73 54 C-73 52.02 -73 50.04 -73 48 C-72.34 48 -71.68 48 -71 48 C-70.67 45.69 -70.34 43.38 -70 41 C-69.01 41.33 -68.02 41.66 -67 42 C-66.34 39.36 -65.68 36.72 -65 34 C-64.34 34 -63.68 34 -63 34 C-62.9175 33.38125 -62.835 32.7625 -62.75 32.125 C-61.75741882 29.31268665 -60.60299442 29.30149721 -58 28 C-56.97388051 26.34928604 -55.97691857 24.68029994 -55 23 C-52.5625 20.1875 -52.5625 20.1875 -50 18 C-48.68 18 -47.36 18 -46 18 C-46 17.34 -46 16.68 -46 16 C-45.01 16 -44.02 16 -43 16 C-42.690625 14.7934375 -42.690625 14.7934375 -42.375 13.5625 C-41.92125 12.716875 -41.4675 11.87125 -41 11 C-37.875 10.1875 -37.875 10.1875 -35 10 C-35 9.34 -35 8.68 -35 8 C-34.34 8 -33.68 8 -33 8 C-33 7.34 -33 6.68 -33 6 C-32.44054688 5.90203125 -31.88109375 5.8040625 -31.3046875 5.703125 C-24.80916374 4.49174115 -18.53208874 2.78163887 -12.19921875 0.90234375 C-4.125 -1.375 -4.125 -1.375 0 0 Z " fill="#F3DEBC" transform="translate(89,10)"/>
<path d="M0 0 C1.32 0 2.64 0 4 0 C4.16757848 5.78392751 4.32814209 11.56799086 4.48217773 17.35229492 C4.53558162 19.32044733 4.59090974 21.28854849 4.64819336 23.2565918 C4.73014912 26.08370922 4.80520687 28.91093805 4.87890625 31.73828125 C4.90594131 32.61962234 4.93297638 33.50096344 4.96083069 34.40901184 C4.98092697 35.22963608 5.00102325 36.05026031 5.02172852 36.89575195 C5.04171402 37.61745071 5.06169952 38.33914948 5.08229065 39.0827179 C5 41 5 41 4 44 C4.66 44.33 5.32 44.66 6 45 C3 46 3 46 0 46 C0 30.82 0 15.64 0 0 Z " fill="#FDFCF9" transform="translate(76,36)"/>
<path d="M0 0 C0.99 0.33 1.98 0.66 3 1 C3 12.88 3 24.76 3 37 C1.35 37.66 -0.3 38.32 -2 39 C-2 26.46 -2 13.92 -2 1 C-1.34 0.67 -0.68 0.34 0 0 Z " fill="#FDFCF7" transform="translate(92,35)"/>
<path d="M0 0 C0.66 0.33 1.32 0.66 2 1 C2.07423798 7.17469663 2.12864413 13.34913261 2.16479492 19.52416992 C2.17986772 21.62415086 2.20032941 23.7241004 2.22631836 25.82397461 C2.26276754 28.84496824 2.27974159 31.86554511 2.29296875 34.88671875 C2.30845261 35.82335861 2.32393646 36.75999847 2.33988953 37.72502136 C2.3411485 42.61737073 2.27295624 46.06757863 -1 50 C-6.95720872 52.97860436 -14.19021183 50.60869748 -20.12890625 48.65625 C-20.74636719 48.4396875 -21.36382812 48.223125 -22 48 C-22 47.67 -22 47.34 -22 47 C-15.97403427 45.9287172 -10.11090483 45.90054585 -4 46 C-4 45.34 -4 44.68 -4 44 C-2.515 43.505 -2.515 43.505 -1 43 C-0.67 28.81 -0.34 14.62 0 0 Z " fill="#6A4F3B" transform="translate(94,139)"/>
<path d="M0 0 C0.66 0.99 1.32 1.98 2 3 C1.67 3.33 1.34 3.66 1 4 C0.63239269 6.32817964 0.29758419 8.6618385 0 11 C-0.33 10.34 -0.66 9.68 -1 9 C-1.66 9.66 -2.32 10.32 -3 11 C-3 11.99 -3 12.98 -3 14 C-3.61875 14.061875 -4.2375 14.12375 -4.875 14.1875 C-7.27761141 14.828919 -7.27761141 14.828919 -8.25 17.5625 C-8.4975 18.366875 -8.745 19.17125 -9 20 C-10.32 19.67 -11.64 19.34 -13 19 C-12.34 17.68 -11.68 16.36 -11 15 C-12.32 14.67 -13.64 14.34 -15 14 C-14.70802734 13.15695313 -14.70802734 13.15695313 -14.41015625 12.296875 C-13.90604364 9.47384438 -14.45454461 7.92363865 -15.4375 5.25 C-15.72496094 4.45078125 -16.01242188 3.6515625 -16.30859375 2.828125 C-16.53675781 2.22484375 -16.76492187 1.6215625 -17 1 C-16.34 1 -15.68 1 -15 1 C-14.34 2.65 -13.68 4.3 -13 6 C-12.01 6 -11.02 6 -10 6 C-10.33 4.35 -10.66 2.7 -11 1 C-9.68 1 -8.36 1 -7 1 C-6.67 2.32 -6.34 3.64 -6 5 C-5.34 5 -4.68 5 -4 5 C-3.67 3.68 -3.34 2.36 -3 1 C-2.34 1 -1.68 1 -1 1 C-0.67 0.67 -0.34 0.34 0 0 Z " fill="#E5A646" transform="translate(179,133)"/>
<path d="M0 0 C0.66 0 1.32 0 2 0 C2.33 2.31 2.66 4.62 3 7 C3.66 6.67 4.32 6.34 5 6 C6.49649362 5.87994547 7.99874793 5.82468549 9.5 5.8125 C10.2940625 5.79832031 11.088125 5.78414063 11.90625 5.76953125 C14 6 14 6 16 8 C15.34 8.66 14.68 9.32 14 10 C13.01 9.67 12.02 9.34 11 9 C11.33 9.99 11.66 10.98 12 12 C12.03954234 14.33299825 12.04401732 16.66708189 12 19 C9.42786866 20.61949011 8.32330841 21.04408751 5.25 20.625 C4.5075 20.41875 3.765 20.2125 3 20 C2.67 17.36 2.34 14.72 2 12 C3.32 12 4.64 12 6 12 C6 11.34 6 10.68 6 10 C4.02 10 2.04 10 0 10 C0 6.7 0 3.4 0 0 Z " fill="#DD9C41" transform="translate(138,112)"/>
<path d="M0 0 C0.99 0.99 1.98 1.98 3 3 C2.34 4.32 1.68 5.64 1 7 C0.34 7 -0.32 7 -1 7 C-1 7.99 -1 8.98 -1 10 C-1.969375 10.28875 -2.93875 10.5775 -3.9375 10.875 C-7.10664203 11.64214682 -7.10664203 11.64214682 -8 14 C-14.75 13.125 -14.75 13.125 -17 12 C-17 10.35 -17 8.7 -17 7 C-16.34 7 -15.68 7 -15 7 C-15 6.34 -15 5.68 -15 5 C-12.69 5 -10.38 5 -8 5 C-7.67 3.68 -7.34 2.36 -7 1 C-6.34 2.32 -5.68 3.64 -5 5 C-4.67 4.01 -4.34 3.02 -4 2 C-1.9375 0.8125 -1.9375 0.8125 0 0 Z " fill="#D69235" transform="translate(161,157)"/>
<path d="M0 0 C2.28934912 3.43402368 2.22713628 4.62847495 2.16015625 8.65625 C2.1437207 10.31333984 2.1437207 10.31333984 2.12695312 12.00390625 C2.10568359 13.15761719 2.08441406 14.31132813 2.0625 15.5 C2.02809103 17.78118707 1.99794494 20.06244359 1.97265625 22.34375 C1.95468994 23.35630859 1.93672363 24.36886719 1.91821289 25.41210938 C1.88018643 28.11739754 1.88018643 28.11739754 3 31 C3.22797562 33.73289293 3.41668187 36.45042204 3.5625 39.1875 C3.60568359 39.93708984 3.64886719 40.68667969 3.69335938 41.45898438 C3.79922685 43.30578375 3.9000976 45.15286834 4 47 C-4.09540546 34.85689182 -2.44819698 18.87514434 -2 5 C-1.34 5 -0.68 5 0 5 C0 3.35 0 1.7 0 0 Z " fill="#C79561" transform="translate(10,83)"/>
<path d="M0 0 C1.98 0 3.96 0 6 0 C6.98035365 4.31355606 7.00260144 6.15384851 5 10 C4.64570093 11.49068052 4.3336348 12.99197408 4.0625 14.5 C3.34158891 18.00074425 2.53028592 20.35470108 0 23 C0 20 0 17 0 14 C-0.99 14.99 -1.98 15.98 -3 17 C-2.625 14.5625 -2.625 14.5625 -2 12 C-1.34 11.67 -0.68 11.34 0 11 C-1.32 10.34 -2.64 9.68 -4 9 C-3 7 -2 5 -1 3 C-0.67 2.01 -0.34 1.02 0 0 Z " fill="#DE9E4B" transform="translate(179,120)"/>
<path d="M0 0 C0.33 0 0.66 0 1 0 C1.88648696 23.59040293 -2.12125416 46.43316426 -18.48046875 64.6484375 C-19.61799957 65.80190012 -20.80287959 66.90850786 -22 68 C-22 64.20344937 -21.07896273 63.74701585 -18.5625 61 C-4.3683605 43.60398533 -0.61032247 21.84954446 0 0 Z " fill="#3E2714" transform="translate(191,92)"/>
<path d="M0 0 C4.70588235 0.70588235 4.70588235 0.70588235 6 2 C6.09311889 3.50418739 6.11746028 5.01271356 6.11352539 6.51977539 C6.11344986 7.48069595 6.11337433 8.44161652 6.11329651 9.43165588 C6.10813522 10.476436 6.10297394 11.52121613 6.09765625 12.59765625 C6.0962413 13.66165146 6.09482635 14.72564667 6.09336853 15.82188416 C6.08775064 19.23545083 6.07519511 22.648953 6.0625 26.0625 C6.05748731 28.37044176 6.052924 30.67838455 6.04882812 32.98632812 C6.0377754 38.65757426 6.02101987 44.32878253 6 50 C5.01 49.67 4.02 49.34 3 49 C3.00444122 48.4406778 3.00888245 47.88135559 3.01345825 47.30508423 C3.05761149 41.49801176 3.08783294 35.69098675 3.10986328 29.88378906 C3.11993789 27.71482406 3.13359798 25.54587269 3.15087891 23.37695312 C3.17506323 20.26428874 3.18646832 17.15180349 3.1953125 14.0390625 C3.20563507 13.065065 3.21595764 12.0910675 3.22659302 11.08755493 C3.22681961 9.73638077 3.22681961 9.73638077 3.22705078 8.35791016 C3.231492 7.56293121 3.23593323 6.76795227 3.24050903 5.94888306 C3.17368303 3.76356509 3.17368303 3.76356509 1 2 C0.34 1.67 -0.32 1.34 -1 1 C-0.67 0.67 -0.34 0.34 0 0 Z " fill="#F4D5B2" transform="translate(120,35)"/>
<path d="M0 0 C1.98 0.66 3.96 1.32 6 2 C6.04936883 6.80548597 6.08570443 11.61082494 6.10986328 16.41650391 C6.11993254 18.05194672 6.13358881 19.68737149 6.15087891 21.32275391 C6.17508705 23.6709437 6.18647357 26.01889588 6.1953125 28.3671875 C6.20563507 29.10057343 6.21595764 29.83395935 6.22659302 30.58956909 C6.22699368 32.39462697 6.12212755 34.1990783 6 36 C5.34 36.66 4.68 37.32 4 38 C2.68 38 1.36 38 0 38 C-0.33 36.68 -0.66 35.36 -1 34 C0.65 34 2.3 34 4 34 C3.67 24.43 3.34 14.86 3 5 C2.01 5.33 1.02 5.66 0 6 C0 4.02 0 2.04 0 0 Z " fill="#BF8B50" transform="translate(97,36)"/>
<path d="M0 0 C2.31 0 4.62 0 7 0 C8.125 4.75 8.125 4.75 7 7 C7.45638334 9.08632385 8.08922376 11.08602206 8.72265625 13.125 C8.81417969 13.74375 8.90570313 14.3625 9 15 C8.34 15.66 7.68 16.32 7 17 C6.34 15.02 5.68 13.04 5 11 C4.67 13.31 4.34 15.62 4 18 C3.67 18 3.34 18 3 18 C3 15.69 3 13.38 3 11 C1.35 11.66 -0.3 12.32 -2 13 C-1.42655063 10.13275314 -1.1385485 9.1385485 1 7 C0.01 6.67 -0.98 6.34 -2 6 C-1.34 4.02 -0.68 2.04 0 0 Z " fill="#DC9A47" transform="translate(161,102)"/>
<path d="M0 0 C0.66 0 1.32 0 2 0 C1.83701416 0.79293457 1.67402832 1.58586914 1.50610352 2.40283203 C0.88488295 6.81820289 0.87580635 11.1027738 0.90234375 15.5546875 C0.9037587 16.45623566 0.90517365 17.35778381 0.90663147 18.28665161 C0.9122026 21.149469 0.92474974 24.01220648 0.9375 26.875 C0.94251873 28.82291553 0.94708099 30.7708323 0.95117188 32.71875 C0.96216258 37.47919718 0.97940723 42.23958507 1 47 C3.8633883 48.66936547 3.8633883 48.66936547 7.0703125 48.6875 C8.08738281 48.3471875 8.08738281 48.3471875 9.125 48 C11.1953125 47.3125 11.1953125 47.3125 13 47 C13.66 47.66 14.32 48.32 15 49 C13.515 49.495 13.515 49.495 12 50 C11.67 50.66 11.34 51.32 11 52 C3.62025316 53.53164557 3.62025316 53.53164557 0 52 C-1.21618998 49.56762005 -1.12688905 48.00860217 -1.12939453 45.29077148 C-1.13254669 44.31313339 -1.13569885 43.3354953 -1.13894653 42.32823181 C-1.1369223 41.26987625 -1.13489807 40.21152069 -1.1328125 39.12109375 C-1.13376923 38.03868912 -1.13472595 36.95628448 -1.13571167 35.84107971 C-1.13639298 33.55038393 -1.13454211 31.25968623 -1.13037109 28.96899414 C-1.12501701 25.44868672 -1.13032044 21.92850659 -1.13671875 18.40820312 C-1.13605806 16.18749972 -1.13477709 13.96679639 -1.1328125 11.74609375 C-1.13483673 10.68571396 -1.13686096 9.62533417 -1.13894653 8.53282166 C-1.13579437 7.55833572 -1.13264221 6.58384979 -1.12939453 5.57983398 C-1.12859894 4.71760727 -1.12780334 3.85538055 -1.12698364 2.96702576 C-1 1 -1 1 0 0 Z " fill="#B9834A" transform="translate(107,136)"/>
<path d="M0 0 C0.33 0 0.66 0 1 0 C1.24460031 4.08820954 1.4588821 8.17685815 1.64697266 12.26806641 C1.71480238 13.65520039 1.79044693 15.04197785 1.87451172 16.42822266 C2.39294765 25.07923195 2.20479208 32.20603456 -2 40 C-3.32 40 -4.64 40 -6 40 C-6 40.66 -6 41.32 -6 42 C-9.3 42 -12.6 42 -16 42 C-14.68 41.34 -13.36 40.68 -12 40 C-6.81685446 36.86851624 -2.95818979 33.87456936 -1 28 C-0.84929203 25.86338742 -0.7514034 23.72287876 -0.68359375 21.58203125 C-0.64169922 20.32841797 -0.59980469 19.07480469 -0.55664062 17.78320312 C-0.51732422 16.47287109 -0.47800781 15.16253906 -0.4375 13.8125 C-0.39429008 12.47720022 -0.350675 11.14191348 -0.30664062 9.80664062 C-0.20043498 6.53786703 -0.09839003 3.26901667 0 0 Z " fill="#C5904A" transform="translate(126,94)"/>
<path d="M0 0 C7.81266453 8.39138043 13.2320882 22.90268091 13.25 34.3125 C13.1675 35.529375 13.085 36.74625 13 38 C12.01 37.67 11.02 37.34 10 37 C9.90203125 36.16597656 9.8040625 35.33195312 9.703125 34.47265625 C8.85607293 28.09785917 7.73722059 22.75776935 4.8828125 16.99609375 C3.59003857 14.07305181 3.3097444 11.15939287 3 8 C2.69096017 6.66082739 2.37057089 5.32346746 2 4 C1.34 4 0.68 4 0 4 C0 2.68 0 1.36 0 0 Z " fill="#8D683C" transform="translate(178,53)"/>
<path d="M0 0 C2 3 2 3 2 5 C1.01 5 0.02 5 -1 5 C-0.79375 5.721875 -0.5875 6.44375 -0.375 7.1875 C0.07108001 10.53310006 -0.3425809 12.07978539 -2 15 C-2.65355469 15.28875 -3.30710937 15.5775 -3.98046875 15.875 C-6.15267045 16.83383904 -6.15267045 16.83383904 -6.9765625 18.98828125 C-7.19054687 19.75527344 -7.40453125 20.52226563 -7.625 21.3125 C-7.86089844 22.11171875 -8.09679687 22.9109375 -8.33984375 23.734375 C-8.55769531 24.48203125 -8.77554687 25.2296875 -9 26 C-9.64896236 27.67363977 -10.30580437 29.34461042 -11 31 C-11.66 31 -12.32 31 -13 31 C-10.8138043 21.52648529 -8.25398936 12.256269 -3 4 C-2.34 4 -1.68 4 -1 4 C-0.67 2.68 -0.34 1.36 0 0 Z " fill="#B6732E" transform="translate(24,49)"/>
<path d="M0 0 C0.66 0.33 1.32 0.66 2 1 C0.41505536 4.97626462 -2.22289478 7.29021121 -5.3125 10.1875 C-9.95461506 14.64819385 -13.36673489 19.10788745 -16 25 C-16.66 25 -17.32 25 -18 25 C-18.103125 25.515625 -18.20625 26.03125 -18.3125 26.5625 C-19.24263866 29.86026435 -20.61395512 32.86633332 -22 36 C-22.33 36 -22.66 36 -23 36 C-23 34.02 -23 32.04 -23 30 C-22.34 30 -21.68 30 -21 30 C-20.67 27.69 -20.34 25.38 -20 23 C-19.01 23.33 -18.02 23.66 -17 24 C-16.34 21.36 -15.68 18.72 -15 16 C-14.34 16 -13.68 16 -13 16 C-12.9175 15.38125 -12.835 14.7625 -12.75 14.125 C-11.75741882 11.31268665 -10.60299442 11.30149721 -8 10 C-6.97388051 8.34928604 -5.97691857 6.68029994 -5 5 C-3.37163262 3.2958946 -1.71230248 1.61974559 0 0 Z " fill="#FCEAD1" transform="translate(39,28)"/>
<path d="M0 0 C3.01672761 9.21138201 -0.05049998 21.28788664 -1.875 30.5625 C-2.03637451 31.39458984 -2.19774902 32.22667969 -2.36401367 33.08398438 C-3.39628986 38.04852663 -4.84327919 42.4092657 -7 47 C-7.33 47 -7.66 47 -8 47 C-7.85950482 45.52031676 -7.71245174 44.04125484 -7.5625 42.5625 C-7.48128906 41.73878906 -7.40007812 40.91507813 -7.31640625 40.06640625 C-7 38 -7 38 -6 37 C-5.92820036 35.48071962 -5.91607993 33.95832518 -5.9375 32.4375 C-5.95103516 31.19806641 -5.95103516 31.19806641 -5.96484375 29.93359375 C-5.97644531 29.29550781 -5.98804688 28.65742187 -6 28 C-5.34 28 -4.68 28 -4 28 C-3.87882813 26.98421875 -3.75765625 25.9684375 -3.6328125 24.921875 C-2.62199956 16.57504143 -1.47417237 8.28045756 0 0 Z " fill="#B58755" transform="translate(191,88)"/>
<path d="M0 0 C29.30013747 -0.32717275 29.30013747 -0.32717275 38 6 C38 6.66 38 7.32 38 8 C34.01382441 7.27456092 30.20043636 6.19594679 26.3125 5.0625 C17.66333349 2.6373566 8.9252938 1.77700152 0 1 C0 0.67 0 0.34 0 0 Z " fill="#FDF3E0" transform="translate(96,7)"/>
<path d="M0 0 C1.65 0 3.3 0 5 0 C5 11.55 5 23.1 5 35 C4.67 35 4.34 35 4 35 C3.67 24.44 3.34 13.88 3 3 C2.01 2.67 1.02 2.34 0 2 C0 13.22 0 24.44 0 36 C-0.33 36 -0.66 36 -1 36 C-1.02465098 31.03377651 -1.04283649 26.06758834 -1.05493164 21.10131836 C-1.0599719 19.41055684 -1.06680405 17.71979971 -1.07543945 16.02905273 C-1.08751857 13.60399293 -1.09323123 11.17899056 -1.09765625 8.75390625 C-1.10281754 7.99348526 -1.10797882 7.23306427 -1.11329651 6.44960022 C-1.11349238 4.6326743 -1.06197277 2.81586873 -1 1 C-0.67 0.67 -0.34 0.34 0 0 Z " fill="#F9F0DE" transform="translate(105,36)"/>
<path d="M0 0 C0.66 0 1.32 0 2 0 C2.33 0.99 2.66 1.98 3 3 C-1.61177586 11.19871264 -8.57443613 18.1925891 -15 25 C-15.33 24.01 -15.66 23.02 -16 22 C-15.34 22 -14.68 22 -14 22 C-13.938125 21.443125 -13.87625 20.88625 -13.8125 20.3125 C-12.64834483 16.99913528 -10.60541556 15.29524704 -8 13 C-7.01 12.67 -6.02 12.34 -5 12 C-5.04125 11.05125 -5.0825 10.1025 -5.125 9.125 C-5 6 -5 6 -3 4 C-2.01 4.33 -1.02 4.66 0 5 C-0.2784375 4.0409375 -0.2784375 4.0409375 -0.5625 3.0625 C-0.706875 2.381875 -0.85125 1.70125 -1 1 C-0.67 0.67 -0.34 0.34 0 0 Z " fill="#C3974D" transform="translate(176,142)"/>
<path d="M0 0 C2.97 0.495 2.97 0.495 6 1 C6 1.33 6 1.66 6 2 C4.02 2.66 2.04 3.32 0 4 C-0.33 16.21 -0.66 28.42 -1 41 C-2.65 41.66 -4.3 42.32 -6 43 C-6 39.37 -6 35.74 -6 32 C-5.67 32 -5.34 32 -5 32 C-5 33.98 -5 35.96 -5 38 C-4.01 37.505 -4.01 37.505 -3 37 C-2.98018066 35.98574951 -2.96036133 34.97149902 -2.93994141 33.92651367 C-2.86386977 30.16356576 -2.77515509 26.40100377 -2.68261719 22.63842773 C-2.64433382 21.00992451 -2.60947976 19.38133691 -2.578125 17.75268555 C-2.53245998 15.41163986 -2.47446923 13.0711747 -2.4140625 10.73046875 C-2.40251129 10.00224411 -2.39096008 9.27401947 -2.37905884 8.52372742 C-2.27121488 4.83038626 -2.10115724 3.15173586 0 0 Z " fill="#B58645" transform="translate(89,32)"/>
<path d="M0 0 C0 2.31 0 4.62 0 7 C-2.57213134 8.61949011 -3.67669159 9.04408751 -6.75 8.625 C-7.86375 8.315625 -7.86375 8.315625 -9 8 C-9.33 5.36 -9.66 2.72 -10 0 C-6.42355152 -1.2380014 -3.66305234 -0.74926071 0 0 Z " fill="#E4A044" transform="translate(150,124)"/>
<path d="M0 0 C0.99 0.33 1.98 0.66 3 1 C3 7 3 7 2 9 C9.59 9 17.18 9 25 9 C25 9.33 25 9.66 25 10 C8.83 10 -7.34 10 -24 10 C-24 9.67 -24 9.34 -24 9 C-16.08 8.67 -8.16 8.34 0 8 C-0.66 6.68 -1.32 5.36 -2 4 C-1.34 4 -0.68 4 0 4 C0 2.68 0 1.36 0 0 Z " fill="#D4B182" transform="translate(99,75)"/>
<path d="M0 0 C-0.99 0.495 -0.99 0.495 -2 1 C-2 1.66 -2 2.32 -2 3 C-7.625 3.25 -7.625 3.25 -11 1 C-11.66 1.66 -12.32 2.32 -13 3 C-13 3.33 -13 3.66 -13 4 C-15.31 4 -17.62 4 -20 4 C-20 3.01 -20 2.02 -20 1 C-20.99 1 -21.98 1 -23 1 C-23.33 1.99 -23.66 2.98 -24 4 C-24.66 3.67 -25.32 3.34 -26 3 C-21.17193917 -4.24209125 -7.71966825 -1.21092835 0 0 Z " fill="#BB7329" transform="translate(112,12)"/>
<path d="M0 0 C0.99 0.33 1.98 0.66 3 1 C2.73445312 1.82242188 2.46890625 2.64484375 2.1953125 3.4921875 C0.04705734 10.28192825 -1.79550724 16.9790751 -3 24 C-3.66 24 -4.32 24 -5 24 C-5.35567782 16.83375064 -4.94244971 11.56392627 -2 5 C-1.4121875 3.515 -1.4121875 3.515 -0.8125 2 C-0.544375 1.34 -0.27625 0.68 0 0 Z " fill="#F9E6CC" transform="translate(13,64)"/>
<path d="M0 0 C0.33 0.66 0.66 1.32 1 2 C-1.5775046 5.0461418 -3.34141287 6.79338443 -7.1875 8 C-12.17480619 8 -16.33344581 6.66193177 -21 5 C-21 4.67 -21 4.34 -21 4 C-14.97403427 2.9287172 -9.11090483 2.90054585 -3 3 C-3 2.34 -3 1.68 -3 1 C-2.01 0.67 -1.02 0.34 0 0 Z " fill="#8F6439" transform="translate(93,182)"/>
<path d="M0 0 C2.47375854 0.96201721 4.85268665 1.92002989 7.1875 3.1875 C8.0846875 3.5896875 8.0846875 3.5896875 9 4 C9.66 3.67 10.32 3.34 11 3 C11.66 3.33 12.32 3.66 13 4 C13 4.66 13 5.32 13 6 C13.928125 6.103125 14.85625 6.20625 15.8125 6.3125 C19.02464205 7.00531495 20.11930017 7.3879169 22 10 C22 10.66 22 11.32 22 12 C24.475 12.495 24.475 12.495 27 13 C21.69227317 14.76924228 16.82793826 11.35383467 12 9 C1.5089667 3.01793339 1.5089667 3.01793339 0 0 Z " fill="#896238" transform="translate(45,172)"/>
<path d="M0 0 C0.33 0 0.66 0 1 0 C1.02187378 0.84425537 1.02187378 0.84425537 1.04418945 1.70556641 C1.37373543 13.13370851 2.03559165 23.90677378 5 35 C4.34 34.67 3.68 34.34 3 34 C3 32.68 3 31.36 3 30 C2.34 30 1.68 30 1 30 C-0.70257113 23.6016123 -1.28596787 17.67021203 -1.1875 11.0625 C-1.18685547 10.21365234 -1.18621094 9.36480469 -1.18554688 8.49023438 C-1.14109791 2.28219582 -1.14109791 2.28219582 0 0 Z " fill="#FEF5E1" transform="translate(7,91)"/>
<path d="M0 0 C0.66 0 1.32 0 2 0 C2.25117151 6.53045923 2.25117151 6.53045923 0.953125 8.95703125 C-0.48821696 12.04646504 0.41470011 14.44633247 1.1015625 17.68359375 C1 20 1 20 -3 25 C-3 18.4 -3 11.8 -3 5 C-2.34 5 -1.68 5 -1 5 C-0.67 3.35 -0.34 1.7 0 0 Z " fill="#B7722F" transform="translate(14,75)"/>
<path d="M0 0 C0.66 0 1.32 0 2 0 C2.38064163 8.79705092 1.20731692 17.31163005 0 26 C-0.33 26 -0.66 26 -1 26 C-0.98839844 24.89140625 -0.97679687 23.7828125 -0.96484375 22.640625 C-0.95546208 21.17708502 -0.94636229 19.71354322 -0.9375 18.25 C-0.92912109 17.52039063 -0.92074219 16.79078125 -0.91210938 16.0390625 C-0.88208995 10.93406768 -0.88208995 10.93406768 -2 6 C-2.66 5.67 -3.32 5.34 -4 5 C-4 4.01 -4 3.02 -4 2 C-2.68 2 -1.36 2 0 2 C0 1.34 0 0.68 0 0 Z " fill="#C38743" transform="translate(188,90)"/>
<path d="M0 0 C1.98 0 3.96 0 6 0 C5.95875 0.9075 5.9175 1.815 5.875 2.75 C5.7489442 5.90971412 5.7489442 5.90971412 7.125 8 C8 10 8 10 7.25 13.125 C6 16 6 16 4 18 C4 14.66666667 4 11.33333333 4 8 C3.34 8 2.68 8 2 8 C2 6.35 2 4.7 2 3 C1.34 3 0.68 3 0 3 C0 2.01 0 1.02 0 0 Z " fill="#D4933D" transform="translate(145,96)"/>
<path d="M0 0 C0.66 0 1.32 0 2 0 C2.33 0.66 2.66 1.32 3 2 C3.99 2.33 4.98 2.66 6 3 C9.14293274 6.3225289 10 7.29735282 10 12 C10.928125 12.2165625 10.928125 12.2165625 11.875 12.4375 C14 13 14 13 16 14 C15.67 14.99 15.34 15.98 15 17 C11.27975712 14.96133287 8.61619858 12.8028866 5.8125 9.625 C5.13832031 8.87476563 4.46414062 8.12453125 3.76953125 7.3515625 C1.97672057 4.96906354 0.96717635 2.80729135 0 0 Z " fill="#BD8A3F" transform="translate(22,147)"/>
<path d="M0 0 C1.67542976 0.28604898 3.34385343 0.61781233 5 1 C4.67 2.32 4.34 3.64 4 5 C4.66 5.33 5.32 5.66 6 6 C6.625 8.0625 6.625 8.0625 7 10 C0.25 8.375 0.25 8.375 -2 5 C-1.48275862 1.48275862 -1.48275862 1.48275862 0 0 Z M-3 7 C-2.01 7.495 -2.01 7.495 -1 8 C-1.99 8.495 -1.99 8.495 -3 9 C-3 8.34 -3 7.68 -3 7 Z " fill="#BA722A" transform="translate(27,47)"/>
<path d="M0 0 C1.2065625 0.0309375 1.2065625 0.0309375 2.4375 0.0625 C1.78934326 0.38524902 1.14118652 0.70799805 0.47338867 1.04052734 C-2.09943903 3.59576886 -2.06349256 5.48545223 -2.14250183 9.01797485 C-2.14059341 9.80868378 -2.138685 10.5993927 -2.13671875 11.4140625 C-2.15088333 12.22869965 -2.16504791 13.04333679 -2.17964172 13.88265991 C-2.22158528 16.48440763 -2.2367929 19.08546152 -2.25 21.6875 C-2.27901395 24.29635735 -2.31350081 26.90503676 -2.35249329 29.51376343 C-2.37505693 31.13739999 -2.39082972 32.76114716 -2.39933777 34.38491821 C-2.45291827 39.95291827 -2.45291827 39.95291827 -3.5625 41.0625 C-5.22867115 41.10313832 -6.89638095 41.105221 -8.5625 41.0625 C-7.91434326 40.73975098 -7.26618652 40.41700195 -6.59838867 40.08447266 C-4.02556097 37.52923114 -4.06150744 35.63954777 -3.98249817 32.10702515 C-3.98440659 31.31631622 -3.986315 30.5256073 -3.98828125 29.7109375 C-3.97411667 28.89630035 -3.95995209 28.08166321 -3.94535828 27.24234009 C-3.90341472 24.64059237 -3.8882071 22.03953848 -3.875 19.4375 C-3.84598605 16.82864265 -3.81149919 14.21996324 -3.77250671 11.61123657 C-3.74994307 9.98760001 -3.73417028 8.36385284 -3.72566223 6.74008179 C-3.66166227 0.08930884 -3.66166227 0.08930884 0 0 Z " fill="#321504" transform="translate(106.5625,33.9375)"/>
<path d="M0 0 C0.66 0.33 1.32 0.66 2 1 C1.83984375 2.859375 1.83984375 2.859375 1 5 C-1.43359375 6.265625 -1.43359375 6.265625 -4.4375 7.25 C-5.42621094 7.58515625 -6.41492188 7.9203125 -7.43359375 8.265625 C-10 9 -10 9 -12 9 C-11.42655063 6.13275314 -11.1385485 5.1385485 -9 3 C-5.5 2.5 -5.5 2.5 -2 2 C-1.34 1.34 -0.68 0.68 0 0 Z " fill="#FBECD2" transform="translate(117,128)"/>
<path d="M0 0 C0.33 1.32 0.66 2.64 1 4 C1.66 4 2.32 4 3 4 C3 5.32 3 6.64 3 8 C2.34 8 1.68 8 1 8 C1.33 8.99 1.66 9.98 2 11 C1.67 11.33 1.34 11.66 1 12 C-0.52519276 11.91062197 -2.04681929 11.75462854 -3.5625 11.5625 C-4.38878906 11.46066406 -5.21507812 11.35882813 -6.06640625 11.25390625 C-6.70449219 11.17011719 -7.34257812 11.08632812 -8 11 C-8 10.67 -8 10.34 -8 10 C-6.02 10 -4.04 10 -2 10 C-2.33 8.02 -2.66 6.04 -3 4 C-2.34 4 -1.68 4 -1 4 C-0.67 2.68 -0.34 1.36 0 0 Z " fill="#E09A40" transform="translate(136,120)"/>
<path d="M0 0 C-2.5843218 2.5843218 -4.89375577 3.10401163 -8.375 4.1875 C-9.51710938 4.55230469 -10.65921875 4.91710937 -11.8359375 5.29296875 C-14.81474653 5.95860385 -16.20871903 6.07938697 -19 5 C-16.35620636 1.03430954 -14.06880603 0.74196961 -9.62109375 -0.50390625 C-6.06567305 -1.17683983 -3.49857077 -0.83661475 0 0 Z " fill="#C08C52" transform="translate(137,181)"/>
<path d="M0 0 C0.33 0 0.66 0 1 0 C1.33 6.93 1.66 13.86 2 21 C0.68 21 -0.64 21 -2 21 C-1.86142159 17.87463363 -1.71290431 14.74981783 -1.5625 11.625 C-1.52318359 10.73554687 -1.48386719 9.84609375 -1.44335938 8.9296875 C-1.40146484 8.07890625 -1.35957031 7.228125 -1.31640625 6.3515625 C-1.27974854 5.56604004 -1.24309082 4.78051758 -1.20532227 3.97119141 C-1 2 -1 2 0 0 Z " fill="#C68831" transform="translate(99,49)"/>
<path d="M0 0 C0.33 0 0.66 0 1 0 C1 11.88 1 23.76 1 36 C-0.65 36.66 -2.3 37.32 -4 38 C-4 36.68 -4 35.36 -4 34 C-2.515 33.505 -2.515 33.505 -1 33 C-1.00523682 32.0713916 -1.01047363 31.1427832 -1.01586914 30.18603516 C-1.03289593 26.74576195 -1.04544273 23.30553341 -1.05493164 19.86523438 C-1.05996514 18.37531834 -1.06679242 16.88540726 -1.07543945 15.39550781 C-1.08754805 13.25584696 -1.09323807 11.11625132 -1.09765625 8.9765625 C-1.10289307 7.68830566 -1.10812988 6.40004883 -1.11352539 5.07275391 C-1 2 -1 2 0 0 Z " fill="#BA8B4D" transform="translate(116,37)"/>
<path d="M0 0 C2.45332633 2.45332633 2.35363688 3.48798628 2.625 6.875 C2.69976562 7.73867187 2.77453125 8.60234375 2.8515625 9.4921875 C3.07358582 13.24321311 2.9275903 16.39270439 2 20 C1.6503582 22.33094534 1.31445513 24.66404762 1 27 C0.67 27 0.34 27 0 27 C0 18.09 0 9.18 0 0 Z " fill="#C57F37" transform="translate(107,142)"/>
<path d="M0 0 C4.52733285 4.86269083 9 12.21671234 9 19 C8.01 19.33 7.02 19.66 6 20 C4.19078131 16.01971888 3.55021598 12.32312557 3 8 C2.69096017 6.66082739 2.37057089 5.32346746 2 4 C1.34 4 0.68 4 0 4 C0 2.68 0 1.36 0 0 Z " fill="#AF7D51" transform="translate(178,53)"/>
<path d="M0 0 C1.98 0 3.96 0 6 0 C5.67 0.99 5.34 1.98 5 3 C4.85284801 4.62567079 4.75278133 6.25586857 4.68359375 7.88671875 C4.64169922 8.82451172 4.59980469 9.76230469 4.55664062 10.72851562 C4.49766602 12.19321289 4.49766602 12.19321289 4.4375 13.6875 C4.39431641 14.67556641 4.35113281 15.66363281 4.30664062 16.68164062 C4.20058346 19.12095546 4.09852286 21.56037113 4 24 C3.67 24 3.34 24 3 24 C2.92652344 22.28490234 2.92652344 22.28490234 2.8515625 20.53515625 C2.77654811 19.04424527 2.70099972 17.55336108 2.625 16.0625 C2.5940625 15.30775391 2.563125 14.55300781 2.53125 13.77539062 C2.4273685 11.84492605 2.22104386 9.92057919 2 8 C1.34 7.67 0.68 7.34 0 7 C0 4.69 0 2.38 0 0 Z " fill="#D1933D" transform="translate(83,32)"/>
<path d="M0 0 C0.66 0 1.32 0 2 0 C2 0.66 2 1.32 2 2 C2.99 2.33 3.98 2.66 5 3 C7.21751399 6.69585666 8 8.63008373 8 13 C8.66 13 9.32 13 10 13 C10 13.99 10 14.98 10 16 C10.66 16.33 11.32 16.66 12 17 C11.34 18.32 10.68 19.64 10 21 C8.705826 18.43873936 7.41459216 15.87606642 6.125 13.3125 C5.76019531 12.59126953 5.39539063 11.87003906 5.01953125 11.12695312 C3.1820758 7.46874636 1.43861498 3.8388305 0 0 Z " fill="#FBF2E0" transform="translate(176,48)"/>
<path d="M0 0 C0.33 0 0.66 0 1 0 C1.02505615 0.9787207 1.0501123 1.95744141 1.07592773 2.96582031 C1.17023983 6.60380704 1.27040203 10.24161343 1.37231445 13.87939453 C1.41557338 15.45259374 1.45725474 17.02583717 1.49731445 18.59912109 C1.55523662 20.86309115 1.61886714 23.12684051 1.68359375 25.390625 C1.70866249 26.44240936 1.70866249 26.44240936 1.73423767 27.51544189 C1.83351022 30.80233821 2.00812672 33.85142005 3 37 C2.01 37 1.02 37 0 37 C-1.06061259 32.75397856 -1.03535509 28.8749031 -0.87890625 24.51171875 C-0.85529526 23.80852005 -0.83168427 23.10532135 -0.80735779 22.3808136 C-0.7311907 20.14947928 -0.64696693 17.918534 -0.5625 15.6875 C-0.50923218 14.16863841 -0.45649215 12.6497582 -0.40429688 11.13085938 C-0.2756401 7.42033791 -0.13975943 3.71012176 0 0 Z " fill="#AB794A" transform="translate(73,88)"/>
<path d="M0 0 C6.0546875 -0.1953125 6.0546875 -0.1953125 8 0 C8.66 0.66 9.32 1.32 10 2 C10.66 2.33 11.32 2.66 12 3 C12.33 3.66 12.66 4.32 13 5 C11.39592672 5.02708567 9.7917215 5.04643483 8.1875 5.0625 C6.84751953 5.07990234 6.84751953 5.07990234 5.48046875 5.09765625 C3 5 3 5 0 4 C0 2.68 0 1.36 0 0 Z " fill="#E09D4C" transform="translate(125,176)"/>
<path d="M0 0 C0.99 0.33 1.98 0.66 3 1 C2.74438677 3.3431213 2.40729228 5.67843403 2 8 C1.01 8.495 1.01 8.495 0 9 C-2.625 7.8125 -2.625 7.8125 -5 6 C-5 4.68 -5 3.36 -5 2 C-4.01 1.67 -3.02 1.34 -2 1 C-1.34 0.67 -0.68 0.34 0 0 Z " fill="#CA8F47" transform="translate(53,168)"/>
<path d="M0 0 C1.67542976 0.28604898 3.34385343 0.61781233 5 1 C4.62875 1.9075 4.2575 2.815 3.875 3.75 C2.69640701 6.88097015 2.69640701 6.88097015 3.875 9.375 C4.24625 9.91125 4.6175 10.4475 5 11 C4.67 11.33 4.34 11.66 4 12 C3.76807135 13.51469448 3.58784762 15.03754562 3.4375 16.5625 C3.31181641 17.80193359 3.31181641 17.80193359 3.18359375 19.06640625 C3.12300781 19.70449219 3.06242188 20.34257813 3 21 C2.67 21 2.34 21 2 21 C1.86722656 19.80761719 1.73445313 18.61523438 1.59765625 17.38671875 C1.41944017 15.82029322 1.24104544 14.25388802 1.0625 12.6875 C0.93198242 11.50897461 0.93198242 11.50897461 0.79882812 10.30664062 C0.71181641 9.54931641 0.62480469 8.79199219 0.53515625 8.01171875 C0.456604 7.31522217 0.37805176 6.61872559 0.29711914 5.90112305 C0.02003217 3.78351766 0.02003217 3.78351766 -1 1 C-0.67 0.67 -0.34 0.34 0 0 Z " fill="#CF9442" transform="translate(125,85)"/>
<path d="M0 0 C5.91267797 0.48948582 10.22546968 2.30150681 15.4375 5.0625 C16.16904297 5.43955078 16.90058594 5.81660156 17.65429688 6.20507812 C19.44093953 7.12759296 21.22115829 8.0625312 23 9 C22.67 9.66 22.34 10.32 22 11 C17.545 9.02 17.545 9.02 13 7 C13 6.34 13 5.68 13 5 C11.02 5 9.04 5 7 5 C6.67 4.34 6.34 3.68 6 3 C4.02111039 2.27306096 2.02045442 1.60183749 0 1 C0 0.67 0 0.34 0 0 Z " fill="#B1824C" transform="translate(122,12)"/>
<path d="M0 0 C1.88025959 3.76051918 -0.19288137 7.7029655 -1.4375 11.5 C-2.53028916 14.70872896 -3.6885965 17.87280704 -5 21 C-5.66 21 -6.32 21 -7 21 C-2.8 2.8 -2.8 2.8 0 0 Z " fill="#B98550" transform="translate(18,59)"/>
<path d="M0 0 C0 3.80973966 -0.52440089 6.47139342 -2 10 C-5.625 11.4375 -5.625 11.4375 -9 12 C-7.54718935 6.67302761 -3.91888622 3.63597198 0 0 Z " fill="#BA874A" transform="translate(34,37)"/>
<path d="M0 0 C2.66666667 0.66666667 5.33333333 1.33333333 8 2 C8 3.98 8 5.96 8 8 C6.68 8 5.36 8 4 8 C3.67 8.66 3.34 9.32 3 10 C1.95550089 6.86650268 2.06576355 6.01031744 3 3 C2.34 2.67 1.68 2.34 1 2 C0.67 1.34 0.34 0.68 0 0 Z " fill="#C07C2B" transform="translate(140,21)"/>
<path d="M0 0 C-2.9331358 0.97771193 -4.88178994 1.13419011 -7.9375 1.125 C-9.21947266 1.12886719 -9.21947266 1.12886719 -10.52734375 1.1328125 C-12.82680852 1.00930254 -14.79640348 0.64420687 -17 0 C-17 -0.66 -17 -1.32 -17 -2 C-10.4909997 -4.00276932 -5.93848907 -2.85047475 0 0 Z " fill="#B8783B" transform="translate(129,15)"/>
<path d="M0 0 C3.51098025 4.01254885 5.76537994 8.20983041 8 13 C7.01 13.495 7.01 13.495 6 14 C3.875 13.0625 3.875 13.0625 2 12 C2 9.69 2 7.38 2 5 C1.34 5 0.68 5 0 5 C0 3.35 0 1.7 0 0 Z " fill="#FCF2DF" transform="translate(16,138)"/>
<path d="M0 0 C-0.57584432 2.38564077 -1.22227595 4.66682784 -2 7 C-5.5625 8.1875 -5.5625 8.1875 -9 9 C-6.4 0 -6.4 0 0 0 Z " fill="#AF752D" transform="translate(42,33)"/>
<path d="M0 0 C0.66 0.33 1.32 0.66 2 1 C1.52949219 1.44730469 1.05898437 1.89460937 0.57421875 2.35546875 C-3.43796013 6.21013246 -3.43796013 6.21013246 -6.5 10.8125 C-8.70772679 14.03210157 -11.30165497 14.23241896 -15 15 C-10 10 -5 5 0 0 Z " fill="#E2DBD6" transform="translate(170,159)"/>
<path d="M0 0 C0.33 0 0.66 0 1 0 C1 1.98 1 3.96 1 6 C2.32 6 3.64 6 5 6 C5 6.99 5 7.98 5 9 C2.69 9.33 0.38 9.66 -2 10 C-2.33 8.35 -2.66 6.7 -3 5 C-2.34 5 -1.68 5 -1 5 C-0.67 3.35 -0.34 1.7 0 0 Z " fill="#E29D3E" transform="translate(143,134)"/>
<path d="M0 0 C0.33 0 0.66 0 1 0 C1 8.91 1 17.82 1 27 C0.01 27 -0.98 27 -2 27 C-1.34 18.09 -0.68 9.18 0 0 Z " fill="#C17E40" transform="translate(72,93)"/>
<path d="M0 0 C0.66 0.33 1.32 0.66 2 1 C2 1.99 2 2.98 2 4 C1.01 4 0.02 4 -1 4 C-1.33 4.99 -1.66 5.98 -2 7 C-2.99 7 -3.98 7 -5 7 C-5 7.66 -5 8.32 -5 9 C-6.65 9 -8.3 9 -10 9 C-6.83047153 5.73991357 -3.60062011 2.77762123 0 0 Z " fill="#C28B4A" transform="translate(49,24)"/>
<path d="M0 0 C0 2.31 0 4.62 0 7 C-1.98 7.99 -1.98 7.99 -4 9 C-5 8 -5 8 -5.0625 4.4375 C-5.041875 3.303125 -5.02125 2.16875 -5 1 C-1.125 0 -1.125 0 0 0 Z " fill="#E9A84A" transform="translate(150,124)"/>
<path d="M0 0 C0.99 0.33 1.98 0.66 3 1 C2.75 4.375 2.75 4.375 2 8 C0.02 8.99 0.02 8.99 -2 10 C-2 7.03 -2 4.06 -2 1 C-1.34 0.67 -0.68 0.34 0 0 Z " fill="#F8F2EC" transform="translate(92,35)"/>
<path d="M0 0 C0.66 0.99 1.32 1.98 2 3 C1.01 4.32 0.02 5.64 -1 7 C-0.01 7.33 0.98 7.66 2 8 C-0.39509338 10.89932357 -2.31245243 11.50168276 -6 12 C-4.43358249 7.69235185 -2.31663844 3.93828536 0 0 Z " fill="#F1EEE6" transform="translate(182,141)"/>
<path d="M0 0 C0.33 0.66 0.66 1.32 1 2 C0.34 2 -0.32 2 -1 2 C-1.66 4.31 -2.32 6.62 -3 9 C-6.3 9 -9.6 9 -13 9 C-11.68 8.34 -10.36 7.68 -9 7 C-5.6905364 4.90625772 -2.6294866 2.92165178 0 0 Z " fill="#CA9A60" transform="translate(123,127)"/>
<path d="M0 0 C0.99 0 1.98 0 3 0 C3.12375 0.639375 3.2475 1.27875 3.375 1.9375 C3.684375 2.9584375 3.684375 2.9584375 4 4 C4.66 4.33 5.32 4.66 6 5 C5.67 6.65 5.34 8.3 5 10 C4.01 10 3.02 10 2 10 C1.34 10.66 0.68 11.32 0 12 C0.375 9.5625 0.375 9.5625 1 7 C1.66 6.67 2.32 6.34 3 6 C1.68 5.34 0.36 4.68 -1 4 C-0.67 2.68 -0.34 1.36 0 0 Z " fill="#D8993B" transform="translate(176,125)"/>
<path d="M0 0 C0.66 0 1.32 0 2 0 C2.33 1.98 2.66 3.96 3 6 C2.01 6.495 2.01 6.495 1 7 C1 7.99 1 8.98 1 10 C-0.65 10.66 -2.3 11.32 -4 12 C-2.66666667 8 -1.33333333 4 0 0 Z " fill="#EFECE2" transform="translate(188,126)"/>
<path d="M0 0 C0.66 0 1.32 0 2 0 C2.26554688 0.60328125 2.53109375 1.2065625 2.8046875 1.828125 C3.33449219 3.02695313 3.33449219 3.02695313 3.875 4.25 C4.22304687 5.03890625 4.57109375 5.8278125 4.9296875 6.640625 C5.90413905 8.78868608 6.92986429 10.89829202 8 13 C6.02 13 4.04 13 2 13 C2.29197266 12.15695313 2.29197266 12.15695313 2.58984375 11.296875 C3.09395636 8.47384438 2.54545539 6.92363865 1.5625 4.25 C1.27503906 3.45078125 0.98757812 2.6515625 0.69140625 1.828125 C0.46324219 1.22484375 0.23507813 0.6215625 0 0 Z " fill="#EBAD4A" transform="translate(162,134)"/>
<path d="M0 0 C0.71484375 1.765625 0.71484375 1.765625 1 4 C-0.43359375 5.921875 -0.43359375 5.921875 -2.4375 7.75 C-3.42556641 8.67039063 -3.42556641 8.67039063 -4.43359375 9.609375 C-5.20896484 10.29773438 -5.20896484 10.29773438 -6 11 C-6.33 10.01 -6.66 9.02 -7 8 C-6.34 8 -5.68 8 -5 8 C-4.9175 7.4225 -4.835 6.845 -4.75 6.25 C-3.79468987 3.3840696 -2.21530827 2.0009236 0 0 Z " fill="#B78E48" transform="translate(167,156)"/>
<path d="M0 0 C0.33 1.32 0.66 2.64 1 4 C0.34 4 -0.32 4 -1 4 C-0.67 5.65 -0.34 7.3 0 9 C-0.66 9 -1.32 9 -2 9 C-2.33 9.66 -2.66 10.32 -3 11 C-3.73080266 9.02253397 -4.39421747 7.01927511 -5 5 C-4.67 4.34 -4.34 3.68 -4 3 C-2.68 3 -1.36 3 0 3 C0 2.01 0 1.02 0 0 Z " fill="#DB9C3B" transform="translate(169,130)"/>
<path d="M0 0 C2.35119399 3.52679099 2.21443452 5.02879485 2.125 9.1875 C2.10695312 10.27417969 2.08890625 11.36085938 2.0703125 12.48046875 C2.03550781 13.72763672 2.03550781 13.72763672 2 15 C1.34 15 0.68 15 0 15 C-0.19448477 12.87562788 -0.38038289 10.75046809 -0.5625 8.625 C-0.66691406 7.44164063 -0.77132812 6.25828125 -0.87890625 5.0390625 C-1 2 -1 2 0 0 Z " fill="#B97C2D" transform="translate(186,77)"/>
<path d="M0 0 C0 0.33 0 0.66 0 1 C-7.26 1.99 -14.52 2.98 -22 4 C-22 3.01 -22 2.02 -22 1 C-14.64424835 0.29223008 -7.3905476 -0.14715692 0 0 Z " fill="#FEF2E0" transform="translate(94,8)"/>
<path d="M0 0 C-0.66 2.97 -1.32 5.94 -2 9 C-2.99 8.67 -3.98 8.34 -5 8 C-5 5.69 -5 3.38 -5 1 C-2 0 -2 0 0 0 Z " fill="#D99744" transform="translate(185,120)"/>
<path d="M0 0 C0.99 0.66 1.98 1.32 3 2 C2.01 2.33 1.02 2.66 0 3 C-0.33 3.66 -0.66 4.32 -1 5 C-3.32156597 5.40729228 -5.6568787 5.74438677 -8 6 C-7.67 4.68 -7.34 3.36 -7 2 C-3.6875 0.875 -3.6875 0.875 0 0 Z " fill="#B57C3E" transform="translate(119,183)"/>
<path d="M0 0 C6.4 -0.36923077 6.4 -0.36923077 9.4375 1.5 C9.953125 1.995 10.46875 2.49 11 3 C10.67 3.33 10.34 3.66 10 4 C6.50265772 3.61140641 3.34211739 3.11403913 0 2 C0 1.34 0 0.68 0 0 Z " fill="#BB834E" transform="translate(67,182)"/>
<path d="M0 0 C0.66 0.33 1.32 0.66 2 1 C1.67 1.66 1.34 2.32 1 3 C0.34 3 -0.32 3 -1 3 C-1.103125 3.515625 -1.20625 4.03125 -1.3125 4.5625 C-2.24263866 7.86026435 -3.61395512 10.86633332 -5 14 C-5.33 14 -5.66 14 -6 14 C-6 12.02 -6 10.04 -6 8 C-5.34 8 -4.68 8 -4 8 C-3.67 5.69 -3.34 3.38 -3 1 C-2.01 1.33 -1.02 1.66 0 2 C0 1.34 0 0.68 0 0 Z " fill="#F7E4D0" transform="translate(22,50)"/>
<path d="M0 0 C0.33 0.99 0.66 1.98 1 3 C-3.08378283 2.25749403 -7.01939223 1.17076699 -11 0 C-11 -0.33 -11 -0.66 -11 -1 C-6.65621014 -2.01018369 -3.941316 -2.25218057 0 0 Z " fill="#F9E9D0" transform="translate(133,12)"/>
<path d="M0 0 C1.32 0 2.64 0 4 0 C3.67 2.64 3.34 5.28 3 8 C2.01 7.67 1.02 7.34 0 7 C-1.04449911 3.86650268 -0.93423645 3.01031744 0 0 Z " fill="#E6A648" transform="translate(160,140)"/>
<path d="M0 0 C1.6260287 0.06000106 3.25101549 0.1487885 4.875 0.25 C6.23238281 0.31960937 6.23238281 0.31960937 7.6171875 0.390625 C10 1 10 1 11.3203125 3.046875 C11.54460937 3.69140625 11.76890625 4.3359375 12 5 C10.55989519 4.74337755 9.1229313 4.46909179 7.6875 4.1875 C6.88699219 4.03667969 6.08648437 3.88585937 5.26171875 3.73046875 C2.76554413 2.92427764 1.67577894 1.97947998 0 0 Z " fill="#FAECD1" transform="translate(80,130)"/>
<path d="M0 0 C1.98 0 3.96 0 6 0 C5.67 1.98 5.34 3.96 5 6 C3.68 6 2.36 6 1 6 C0.67 4.02 0.34 2.04 0 0 Z " fill="#FAF4E4" transform="translate(120,89)"/>
<path d="M0 0 C0.66 0.33 1.32 0.66 2 1 C3.3734635 1.15004973 4.7528526 1.24838006 6.1328125 1.31640625 C6.93847656 1.35830078 7.74414062 1.40019531 8.57421875 1.44335938 C9.41597656 1.48267578 10.25773437 1.52199219 11.125 1.5625 C12.39923828 1.62727539 12.39923828 1.62727539 13.69921875 1.69335938 C15.79928223 1.79954236 17.89961948 1.90028497 20 2 C20 2.33 20 2.66 20 3 C13.07 3 6.14 3 -1 3 C-0.67 2.01 -0.34 1.02 0 0 Z " fill="#F2E3C6" transform="translate(102,81)"/>
<path d="M0 0 C0.99 0.33 1.98 0.66 3 1 C3 3 3 5 3 7 C2.01 7.33 1.02 7.66 0 8 C-0.66 6.68 -1.32 5.36 -2 4 C-1.34 4 -0.68 4 0 4 C0 2.68 0 1.36 0 0 Z " fill="#8A7E66" transform="translate(99,75)"/>
<path d="M0 0 C0.66 0.33 1.32 0.66 2 1 C2 4.3 2 7.6 2 11 C1.01 11.495 1.01 11.495 0 12 C-0.19573608 10.56359829 -0.38127816 9.12580496 -0.5625 7.6875 C-0.66691406 6.88699219 -0.77132812 6.08648437 -0.87890625 5.26171875 C-1 3 -1 3 0 0 Z " fill="#CF8226" transform="translate(70,56)"/>
<path d="M0 0 C2.0625 0.4375 2.0625 0.4375 4 1 C3.01 1 2.02 1 1 1 C1 2.32 1 3.64 1 5 C1.99 5 2.98 5 4 5 C4 5.66 4 6.32 4 7 C2.35 7.33 0.7 7.66 -1 8 C-1.04241723 5.66705225 -1.04092937 3.33297433 -1 1 C-0.67 0.67 -0.34 0.34 0 0 Z " fill="#D88D3E" transform="translate(124,175)"/>
<path d="M0 0 C0.7425 0.61875 1.485 1.2375 2.25 1.875 C4.48801188 3.60437281 6.43739987 4.86106661 9 6 C3.58461538 7.23076923 3.58461538 7.23076923 0.625 6.0625 C0.08875 5.711875 -0.4475 5.36125 -1 5 C-0.34 4.67 0.32 4.34 1 4 C0.67 2.68 0.34 1.36 0 0 Z " fill="#EBE6D9" transform="translate(105,185)"/>
<path d="M0 0 C0.66 0 1.32 0 2 0 C3.47265625 1.609375 3.47265625 1.609375 5.0625 3.75 C5.85333984 4.79414063 5.85333984 4.79414063 6.66015625 5.859375 C7.96931568 7.95097666 8.56033954 9.59000935 9 12 C5.4102307 8.60966233 2.58452345 5.211816 0 1 C0 0.67 0 0.34 0 0 Z " fill="#BC9A5F" transform="translate(22,147)"/>
<path d="M0 0 C0.33 1.32 0.66 2.64 1 4 C1.66 4 2.32 4 3 4 C3 5.32 3 6.64 3 8 C2.01 8 1.02 8 0 8 C0 7.34 0 6.68 0 6 C-0.66 6 -1.32 6 -2 6 C-1.34 4.02 -0.68 2.04 0 0 Z " fill="#E8A54C" transform="translate(136,120)"/>
<path d="M0 0 C0.99 0 1.98 0 3 0 C3.66 2.64 4.32 5.28 5 8 C4.01 8 3.02 8 2 8 C1.34 5.36 0.68 2.72 0 0 Z " fill="#9B7248" transform="translate(185,72)"/>
<path d="M0 0 C2 3 2 3 2 5 C1.01 5 0.02 5 -1 5 C-1.66 6.98 -2.32 8.96 -3 11 C-3.66 10.67 -4.32 10.34 -5 10 C-4.34 8.02 -3.68 6.04 -3 4 C-2.34 4 -1.68 4 -1 4 C-0.67 2.68 -0.34 1.36 0 0 Z " fill="#B27D4F" transform="translate(24,49)"/>
<path d="M0 0 C0 0.66 0 1.32 0 2 C-0.928125 2.1546875 -0.928125 2.1546875 -1.875 2.3125 C-4.36526484 2.87525373 -4.36526484 2.87525373 -6 6 C-8.475 5.01 -8.475 5.01 -11 4 C-10.34 3.67 -9.68 3.34 -9 3 C-8.34 3.33 -7.68 3.66 -7 4 C-6.67 3.01 -6.34 2.02 -6 1 C-4 0 -4 0 0 0 Z " fill="#B7813C" transform="translate(108,32)"/>
<path d="M0 0 C3.73487777 0.4979837 5.81237635 0.87491756 9 3 C8.67 3.99 8.34 4.98 8 6 C4.942048 4.26440562 2.36620011 2.61527381 0 0 Z " fill="#F9E9D9" transform="translate(151,24)"/>
<path d="M0 0 C2.475 0.99 2.475 0.99 5 2 C5 2.99 5 3.98 5 5 C3.35 5 1.7 5 0 5 C-0.33 4.01 -0.66 3.02 -1 2 C-0.67 1.34 -0.34 0.68 0 0 Z " fill="#CE8627" transform="translate(40,161)"/>
<path d="M0 0 C0.99 0 1.98 0 3 0 C3 1.98 3 3.96 3 6 C1.68 6 0.36 6 -1 6 C-0.67 4.02 -0.34 2.04 0 0 Z " fill="#C27C2F" transform="translate(98,64)"/>
<path d="M0 0 C0.66 0.33 1.32 0.66 2 1 C1.21654285 2.17219543 0.42297164 3.33763668 -0.375 4.5 C-0.81585938 5.1496875 -1.25671875 5.799375 -1.7109375 6.46875 C-2.13632812 6.9740625 -2.56171875 7.479375 -3 8 C-3.66 8 -4.32 8 -5 8 C-3.375 2.25 -3.375 2.25 0 0 Z " fill="#BD7C31" transform="translate(59,19)"/>
<path d="M0 0 C1.98 0.66 3.96 1.32 6 2 C6 2.99 6 3.98 6 5 C4.68 5.33 3.36 5.66 2 6 C1.34 4.02 0.68 2.04 0 0 Z " fill="#EFF0E9" transform="translate(63,183)"/>
<path d="M0 0 C0.33 0 0.66 0 1 0 C0.56179109 4.55737263 0.14958831 7.57653445 -3 11 C-3.32434322 6.35108046 -2.776422 3.77593392 0 0 Z " fill="#CCA05E" transform="translate(182,132)"/>
<path d="M0 0 C0.66 0 1.32 0 2 0 C2.36923077 6.4 2.36923077 6.4 0.5 9.4375 C0.005 9.953125 -0.49 10.46875 -1 11 C-1.0270043 9.54176788 -1.04639787 8.08339325 -1.0625 6.625 C-1.07410156 5.81289062 -1.08570313 5.00078125 -1.09765625 4.1640625 C-1 2 -1 2 0 0 Z " fill="#C17329" transform="translate(14,75)"/>
<path d="M0 0 C1.65 0 3.3 0 5 0 C5 4 5 4 4 6 C3.34 6 2.68 6 2 6 C1.34 4.02 0.68 2.04 0 0 Z " fill="#CA8C39" transform="translate(112,33)"/>
<path d="M0 0 C3.40320742 1.01176437 4.75725331 1.64843582 6.8125 4.625 C7.204375 5.40875 7.59625 6.1925 8 7 C7.01 7.33 6.02 7.66 5 8 C4.67 6.35 4.34 4.7 4 3 C3.01 3 2.02 3 1 3 C0.67 2.01 0.34 1.02 0 0 Z " fill="#C39365" transform="translate(144,20)"/>
<path d="M0 0 C2.31 0.33 4.62 0.66 7 1 C6.01 2.485 6.01 2.485 5 4 C2.375 4.1875 2.375 4.1875 0 4 C0 2.68 0 1.36 0 0 Z " fill="#E3A447" transform="translate(147,118)"/>
<path d="M0 0 C0.33 0 0.66 0 1 0 C0.67 2.31 0.34 4.62 0 7 C-1.65 6.67 -3.3 6.34 -5 6 C-4.67 5.01 -4.34 4.02 -4 3 C-2.68 3 -1.36 3 0 3 C0 2.01 0 1.02 0 0 Z " fill="#FCFCE7" transform="translate(123,77)"/>
<path d="M0 0 C0.33 0 0.66 0 1 0 C1.125 3.375 1.125 3.375 1 7 C0.34 7.66 -0.32 8.32 -1 9 C-3.125 8.625 -3.125 8.625 -5 8 C-5 7.34 -5 6.68 -5 6 C-3.35 6 -1.7 6 0 6 C0 4.02 0 2.04 0 0 Z " fill="#C18C4E" transform="translate(101,64)"/>
<path d="M0 0 C1.98 0 3.96 0 6 0 C5.67 0.99 5.34 1.98 5 3 C4.34 3 3.68 3 3 3 C2.67 3.99 2.34 4.98 2 6 C1.34 4.02 0.68 2.04 0 0 Z " fill="#DB8F30" transform="translate(83,32)"/>
<path d="M0 0 C0 0.99 0 1.98 0 3 C-2.64 2.67 -5.28 2.34 -8 2 C-8 1.34 -8 0.68 -8 0 C-4.94736336 -0.98120464 -3.05263664 -0.98120464 0 0 Z " fill="#BC772E" transform="translate(120,13)"/>
<path d="M0 0 C0.66 0 1.32 0 2 0 C1.52797514 4.24822374 -0.96655518 6.19989709 -4 9 C-3.67 7.68 -3.34 6.36 -3 5 C-2.34 5 -1.68 5 -1 5 C-0.67 3.35 -0.34 1.7 0 0 Z " fill="#D3AB67" transform="translate(172,149)"/>
<path d="M0 0 C-0.61277612 2.96175123 -1.25372522 4.38058783 -3 7 C-3 6.34 -3 5.68 -3 5 C-3.99 4.67 -4.98 4.34 -6 4 C-2.25 0 -2.25 0 0 0 Z " fill="#E09D44" transform="translate(137,117)"/>
<path d="M0 0 C1.32 0 2.64 0 4 0 C2.25 5.75 2.25 5.75 0 8 C0 5.36 0 2.72 0 0 Z " fill="#E0A047" transform="translate(149,106)"/>
<path d="M0 0 C0.66 0.33 1.32 0.66 2 1 C0.86500606 4.29148243 0.00716624 4.9959869 -3.125 6.75 C-4.548125 7.36875 -4.548125 7.36875 -6 8 C-4.55746343 4.63408134 -2.66735273 2.48952921 0 0 Z " fill="#FDF3E5" transform="translate(39,28)"/>
<path d="M0 0 C2.625 -0.1875 2.625 -0.1875 5 0 C5.33 0.66 5.66 1.32 6 2 C3.64561267 3.42944945 2.51967567 4.08661261 -0.25 3.625 C-0.8275 3.41875 -1.405 3.2125 -2 3 C-1.34 2.01 -0.68 1.02 0 0 Z " fill="#C47F26" transform="translate(48,28)"/>
<path d="M0 0 C0 0.66 0 1.32 0 2 C-2.31 2.33 -4.62 2.66 -7 3 C-7.33 2.34 -7.66 1.68 -8 1 C-2.25 -1.125 -2.25 -1.125 0 0 Z " fill="#EBE9E3" transform="translate(134,186)"/>
<path d="M0 0 C0.99 0.33 1.98 0.66 3 1 C2.25 3.4375 2.25 3.4375 1 6 C-1.125 6.8125 -1.125 6.8125 -3 7 C-2.01 4.69 -1.02 2.38 0 0 Z " fill="#FAEAD4" transform="translate(13,64)"/>
<path d="M0 0 C1.5625 1.8125 1.5625 1.8125 3 4 C2.67 4.99 2.34 5.98 2 7 C0.68 6.67 -0.64 6.34 -2 6 C-2 5.01 -2 4.02 -2 3 C-1.34 3 -0.68 3 0 3 C0 2.01 0 1.02 0 0 Z " fill="#BE7B3F" transform="translate(179,57)"/>
<path d="M0 0 C1.485 0.99 1.485 0.99 3 2 C3 2.66 3 3.32 3 4 C3.99 4.33 4.98 4.66 6 5 C5.67 5.99 5.34 6.98 5 8 C2.21611025 6.29374499 1.14615794 5.52373261 0.25 2.3125 C0.1675 1.549375 0.085 0.78625 0 0 Z " fill="#BD7737" transform="translate(169,44)"/>
<path d="M0 0 C0.99 0 1.98 0 3 0 C3 1.65 3 3.3 3 5 C2.01 5.33 1.02 5.66 0 6 C-0.38218767 4.34385343 -0.71395102 2.67542976 -1 1 C-0.67 0.67 -0.34 0.34 0 0 Z " fill="#D1883B" transform="translate(147,42)"/>
<path d="M0 0 C2.64 0.66 5.28 1.32 8 2 C7.34 2.66 6.68 3.32 6 4 C2.875 3.625 2.875 3.625 0 3 C0 2.01 0 1.02 0 0 Z " fill="#F3ECE1" transform="translate(70,186)"/>
<path d="M0 0 C2.875 0.3125 2.875 0.3125 6 1 C6.66 1.99 7.32 2.98 8 4 C7.67 4.99 7.34 5.98 7 7 C4.66666667 4.66666667 2.33333333 2.33333333 0 0 Z " fill="#BC8044" transform="translate(85,135)"/>
<path d="M0 0 C1.0625 1.8125 1.0625 1.8125 2 4 C1.67 4.99 1.34 5.98 1 7 C1.66 7 2.32 7 3 7 C2.67 8.32 2.34 9.64 2 11 C0 9 0 9 -0.1953125 6.8359375 C-0.17210938 6.02382812 -0.14890625 5.21171875 -0.125 4.375 C-0.10695313 3.55773437 -0.08890625 2.74046875 -0.0703125 1.8984375 C-0.04710938 1.27195312 -0.02390625 0.64546875 0 0 Z " fill="#CE903B" transform="translate(127,107)"/>
</svg>
